solid OpenSCAD_Model
  facet normal -0.891002 -0.453999 0
    outer loop
      vertex 1.6168 7.52533 -4
      vertex 1.37533 7.99923 -0.4
      vertex 1.37533 7.99923 -4
    endloop
  endfacet
  facet normal -0.891002 -0.453999 0
    outer loop
      vertex 1.37533 7.99923 -0.4
      vertex 1.6168 7.52533 -4
      vertex 1.6168 7.52533 -0.4
    endloop
  endfacet
  facet normal -0.98769 -0.156427 0
    outer loop
      vertex 1.7 7 -4
      vertex 1.6168 7.52533 -0.4
      vertex 1.6168 7.52533 -4
    endloop
  endfacet
  facet normal -0.98769 -0.156427 0
    outer loop
      vertex 1.6168 7.52533 -0.4
      vertex 1.7 7 -4
      vertex 1.7 7 -0.4
    endloop
  endfacet
  facet normal -0.707111 -0.707103 0
    outer loop
      vertex 1.37533 7.99923 -4
      vertex 0.999234 8.37533 -0.4
      vertex 0.999234 8.37533 -4
    endloop
  endfacet
  facet normal -0.707111 -0.707103 0
    outer loop
      vertex 0.999234 8.37533 -0.4
      vertex 1.37533 7.99923 -4
      vertex 1.37533 7.99923 -0.4
    endloop
  endfacet
  facet normal -0.156427 0.987689 0
    outer loop
      vertex 0.525329 5.3832 -4
      vertex 0 5.3 -0.4
      vertex 0.525329 5.3832 -0.4
    endloop
  endfacet
  facet normal -0.156427 0.987689 0
    outer loop
      vertex 0 5.3 -0.4
      vertex 0.525329 5.3832 -4
      vertex 0 5.3 -4
    endloop
  endfacet
  facet normal 0.453995 -0.891004 0
    outer loop
      vertex -0.999234 8.37533 -4
      vertex -0.525329 8.6168 -0.4
      vertex -0.999234 8.37533 -0.4
    endloop
  endfacet
  facet normal 0.453995 -0.891004 0
    outer loop
      vertex -0.525329 8.6168 -0.4
      vertex -0.999234 8.37533 -4
      vertex -0.525329 8.6168 -4
    endloop
  endfacet
  facet normal -0.453995 0.891004 0
    outer loop
      vertex 0.999234 5.62467 -4
      vertex 0.525329 5.3832 -0.4
      vertex 0.999234 5.62467 -0.4
    endloop
  endfacet
  facet normal -0.453995 0.891004 0
    outer loop
      vertex 0.525329 5.3832 -0.4
      vertex 0.999234 5.62467 -4
      vertex 0.525329 5.3832 -4
    endloop
  endfacet
  facet normal -0.707111 0.707103 0
    outer loop
      vertex 0.999234 5.62467 -4
      vertex 1.37533 6.00077 -0.4
      vertex 1.37533 6.00077 -4
    endloop
  endfacet
  facet normal -0.707111 0.707103 0
    outer loop
      vertex 1.37533 6.00077 -0.4
      vertex 0.999234 5.62467 -4
      vertex 0.999234 5.62467 -0.4
    endloop
  endfacet
  facet normal 0.156427 0.987689 -0
    outer loop
      vertex 0 5.3 -4
      vertex -0.525329 5.3832 -0.4
      vertex 0 5.3 -0.4
    endloop
  endfacet
  facet normal 0.156427 0.987689 0
    outer loop
      vertex -0.525329 5.3832 -0.4
      vertex 0 5.3 -4
      vertex -0.525329 5.3832 -4
    endloop
  endfacet
  facet normal 0.891002 -0.453999 0
    outer loop
      vertex -1.6168 7.52533 -0.4
      vertex -1.37533 7.99923 -4
      vertex -1.37533 7.99923 -0.4
    endloop
  endfacet
  facet normal 0.891002 -0.453999 0
    outer loop
      vertex -1.37533 7.99923 -4
      vertex -1.6168 7.52533 -0.4
      vertex -1.6168 7.52533 -4
    endloop
  endfacet
  facet normal -0.98769 0.156427 0
    outer loop
      vertex 1.6168 6.47467 -4
      vertex 1.7 7 -0.4
      vertex 1.7 7 -4
    endloop
  endfacet
  facet normal -0.98769 0.156427 0
    outer loop
      vertex 1.7 7 -0.4
      vertex 1.6168 6.47467 -4
      vertex 1.6168 6.47467 -0.4
    endloop
  endfacet
  facet normal 0.98769 -0.156427 0
    outer loop
      vertex -1.7 7 -0.4
      vertex -1.6168 7.52533 -4
      vertex -1.6168 7.52533 -0.4
    endloop
  endfacet
  facet normal 0.98769 -0.156427 0
    outer loop
      vertex -1.6168 7.52533 -4
      vertex -1.7 7 -0.4
      vertex -1.7 7 -4
    endloop
  endfacet
  facet normal -0.891002 0.453999 0
    outer loop
      vertex 1.37533 6.00077 -4
      vertex 1.6168 6.47467 -0.4
      vertex 1.6168 6.47467 -4
    endloop
  endfacet
  facet normal -0.891002 0.453999 0
    outer loop
      vertex 1.6168 6.47467 -0.4
      vertex 1.37533 6.00077 -4
      vertex 1.37533 6.00077 -0.4
    endloop
  endfacet
  facet normal -0.156427 -0.987689 0
    outer loop
      vertex 0 8.7 -4
      vertex 0.525329 8.6168 -0.4
      vertex 0 8.7 -0.4
    endloop
  endfacet
  facet normal -0.156427 -0.987689 -0
    outer loop
      vertex 0.525329 8.6168 -0.4
      vertex 0 8.7 -4
      vertex 0.525329 8.6168 -4
    endloop
  endfacet
  facet normal -0.453995 -0.891004 0
    outer loop
      vertex 0.525329 8.6168 -4
      vertex 0.999234 8.37533 -0.4
      vertex 0.525329 8.6168 -0.4
    endloop
  endfacet
  facet normal -0.453995 -0.891004 -0
    outer loop
      vertex 0.999234 8.37533 -0.4
      vertex 0.525329 8.6168 -4
      vertex 0.999234 8.37533 -4
    endloop
  endfacet
  facet normal 0.891002 0.453999 0
    outer loop
      vertex -1.37533 6.00077 -0.4
      vertex -1.6168 6.47467 -4
      vertex -1.6168 6.47467 -0.4
    endloop
  endfacet
  facet normal 0.891002 0.453999 0
    outer loop
      vertex -1.6168 6.47467 -4
      vertex -1.37533 6.00077 -0.4
      vertex -1.37533 6.00077 -4
    endloop
  endfacet
  facet normal 0.156427 -0.987689 0
    outer loop
      vertex -0.525329 8.6168 -4
      vertex 0 8.7 -0.4
      vertex -0.525329 8.6168 -0.4
    endloop
  endfacet
  facet normal 0.156427 -0.987689 0
    outer loop
      vertex 0 8.7 -0.4
      vertex -0.525329 8.6168 -4
      vertex 0 8.7 -4
    endloop
  endfacet
  facet normal 0.707111 0.707103 0
    outer loop
      vertex -0.999234 5.62467 -0.4
      vertex -1.37533 6.00077 -4
      vertex -1.37533 6.00077 -0.4
    endloop
  endfacet
  facet normal 0.707111 0.707103 0
    outer loop
      vertex -1.37533 6.00077 -4
      vertex -0.999234 5.62467 -0.4
      vertex -0.999234 5.62467 -4
    endloop
  endfacet
  facet normal 0.707111 -0.707103 0
    outer loop
      vertex -1.37533 7.99923 -0.4
      vertex -0.999234 8.37533 -4
      vertex -0.999234 8.37533 -0.4
    endloop
  endfacet
  facet normal 0.707111 -0.707103 0
    outer loop
      vertex -0.999234 8.37533 -4
      vertex -1.37533 7.99923 -0.4
      vertex -1.37533 7.99923 -4
    endloop
  endfacet
  facet normal 0.98769 0.156427 0
    outer loop
      vertex -1.6168 6.47467 -0.4
      vertex -1.7 7 -4
      vertex -1.7 7 -0.4
    endloop
  endfacet
  facet normal 0.98769 0.156427 0
    outer loop
      vertex -1.7 7 -4
      vertex -1.6168 6.47467 -0.4
      vertex -1.6168 6.47467 -4
    endloop
  endfacet
  facet normal 0.453995 0.891004 -0
    outer loop
      vertex -0.525329 5.3832 -4
      vertex -0.999234 5.62467 -0.4
      vertex -0.525329 5.3832 -0.4
    endloop
  endfacet
  facet normal 0.453995 0.891004 0
    outer loop
      vertex -0.999234 5.62467 -0.4
      vertex -0.525329 5.3832 -4
      vertex -0.999234 5.62467 -4
    endloop
  endfacet
  facet normal 0.891002 0.453999 0
    outer loop
      vertex -1.37533 -23.9992 -0.4
      vertex -1.6168 -23.5253 -4
      vertex -1.6168 -23.5253 -0.4
    endloop
  endfacet
  facet normal 0.891002 0.453999 0
    outer loop
      vertex -1.6168 -23.5253 -4
      vertex -1.37533 -23.9992 -0.4
      vertex -1.37533 -23.9992 -4
    endloop
  endfacet
  facet normal 0.987688 0.156436 0
    outer loop
      vertex -1.6168 -23.5253 -0.4
      vertex -1.7 -23 -4
      vertex -1.7 -23 -0.4
    endloop
  endfacet
  facet normal 0.987688 0.156436 0
    outer loop
      vertex -1.7 -23 -4
      vertex -1.6168 -23.5253 -0.4
      vertex -1.6168 -23.5253 -4
    endloop
  endfacet
  facet normal 0.707111 0.707103 0
    outer loop
      vertex -0.999234 -24.3753 -0.4
      vertex -1.37533 -23.9992 -4
      vertex -1.37533 -23.9992 -0.4
    endloop
  endfacet
  facet normal 0.707111 0.707103 0
    outer loop
      vertex -1.37533 -23.9992 -4
      vertex -0.999234 -24.3753 -0.4
      vertex -0.999234 -24.3753 -4
    endloop
  endfacet
  facet normal 0.156427 -0.987689 0
    outer loop
      vertex -0.525329 -21.3832 -4
      vertex 0 -21.3 -0.4
      vertex -0.525329 -21.3832 -0.4
    endloop
  endfacet
  facet normal 0.156427 -0.987689 0
    outer loop
      vertex 0 -21.3 -0.4
      vertex -0.525329 -21.3832 -4
      vertex 0 -21.3 -4
    endloop
  endfacet
  facet normal -0.45404 0.890981 0
    outer loop
      vertex 0.999234 -24.3753 -4
      vertex 0.525329 -24.6168 -0.4
      vertex 0.999234 -24.3753 -0.4
    endloop
  endfacet
  facet normal -0.45404 0.890981 0
    outer loop
      vertex 0.525329 -24.6168 -0.4
      vertex 0.999234 -24.3753 -4
      vertex 0.525329 -24.6168 -4
    endloop
  endfacet
  facet normal 0.45404 -0.890981 0
    outer loop
      vertex -0.999234 -21.6247 -4
      vertex -0.525329 -21.3832 -0.4
      vertex -0.999234 -21.6247 -0.4
    endloop
  endfacet
  facet normal 0.45404 -0.890981 0
    outer loop
      vertex -0.525329 -21.3832 -0.4
      vertex -0.999234 -21.6247 -4
      vertex -0.525329 -21.3832 -4
    endloop
  endfacet
  facet normal 0.707111 -0.707103 0
    outer loop
      vertex -1.37533 -22.0008 -0.4
      vertex -0.999234 -21.6247 -4
      vertex -0.999234 -21.6247 -0.4
    endloop
  endfacet
  facet normal 0.707111 -0.707103 0
    outer loop
      vertex -0.999234 -21.6247 -4
      vertex -1.37533 -22.0008 -0.4
      vertex -1.37533 -22.0008 -4
    endloop
  endfacet
  facet normal -0.156427 -0.987689 0
    outer loop
      vertex 0 -21.3 -4
      vertex 0.525329 -21.3832 -0.4
      vertex 0 -21.3 -0.4
    endloop
  endfacet
  facet normal -0.156427 -0.987689 -0
    outer loop
      vertex 0.525329 -21.3832 -0.4
      vertex 0 -21.3 -4
      vertex 0.525329 -21.3832 -4
    endloop
  endfacet
  facet normal -0.891002 0.453999 0
    outer loop
      vertex 1.37533 -23.9992 -4
      vertex 1.6168 -23.5253 -0.4
      vertex 1.6168 -23.5253 -4
    endloop
  endfacet
  facet normal -0.891002 0.453999 0
    outer loop
      vertex 1.6168 -23.5253 -0.4
      vertex 1.37533 -23.9992 -4
      vertex 1.37533 -23.9992 -0.4
    endloop
  endfacet
  facet normal 0.987688 -0.156436 0
    outer loop
      vertex -1.7 -23 -0.4
      vertex -1.6168 -22.4747 -4
      vertex -1.6168 -22.4747 -0.4
    endloop
  endfacet
  facet normal 0.987688 -0.156436 0
    outer loop
      vertex -1.6168 -22.4747 -4
      vertex -1.7 -23 -0.4
      vertex -1.7 -23 -4
    endloop
  endfacet
  facet normal -0.987688 0.156436 0
    outer loop
      vertex 1.6168 -23.5253 -4
      vertex 1.7 -23 -0.4
      vertex 1.7 -23 -4
    endloop
  endfacet
  facet normal -0.987688 0.156436 0
    outer loop
      vertex 1.7 -23 -0.4
      vertex 1.6168 -23.5253 -4
      vertex 1.6168 -23.5253 -0.4
    endloop
  endfacet
  facet normal 0.891002 -0.453999 0
    outer loop
      vertex -1.6168 -22.4747 -0.4
      vertex -1.37533 -22.0008 -4
      vertex -1.37533 -22.0008 -0.4
    endloop
  endfacet
  facet normal 0.891002 -0.453999 0
    outer loop
      vertex -1.37533 -22.0008 -4
      vertex -1.6168 -22.4747 -0.4
      vertex -1.6168 -22.4747 -4
    endloop
  endfacet
  facet normal 0.156427 0.987689 -0
    outer loop
      vertex 0 -24.7 -4
      vertex -0.525329 -24.6168 -0.4
      vertex 0 -24.7 -0.4
    endloop
  endfacet
  facet normal 0.156427 0.987689 0
    outer loop
      vertex -0.525329 -24.6168 -0.4
      vertex 0 -24.7 -4
      vertex -0.525329 -24.6168 -4
    endloop
  endfacet
  facet normal 0.45404 0.890981 -0
    outer loop
      vertex -0.525329 -24.6168 -4
      vertex -0.999234 -24.3753 -0.4
      vertex -0.525329 -24.6168 -0.4
    endloop
  endfacet
  facet normal 0.45404 0.890981 0
    outer loop
      vertex -0.999234 -24.3753 -0.4
      vertex -0.525329 -24.6168 -4
      vertex -0.999234 -24.3753 -4
    endloop
  endfacet
  facet normal -0.891002 -0.453999 0
    outer loop
      vertex 1.6168 -22.4747 -4
      vertex 1.37533 -22.0008 -0.4
      vertex 1.37533 -22.0008 -4
    endloop
  endfacet
  facet normal -0.891002 -0.453999 0
    outer loop
      vertex 1.37533 -22.0008 -0.4
      vertex 1.6168 -22.4747 -4
      vertex 1.6168 -22.4747 -0.4
    endloop
  endfacet
  facet normal -0.156427 0.987689 0
    outer loop
      vertex 0.525329 -24.6168 -4
      vertex 0 -24.7 -0.4
      vertex 0.525329 -24.6168 -0.4
    endloop
  endfacet
  facet normal -0.156427 0.987689 0
    outer loop
      vertex 0 -24.7 -0.4
      vertex 0.525329 -24.6168 -4
      vertex 0 -24.7 -4
    endloop
  endfacet
  facet normal -0.707111 -0.707103 0
    outer loop
      vertex 1.37533 -22.0008 -4
      vertex 0.999234 -21.6247 -0.4
      vertex 0.999234 -21.6247 -4
    endloop
  endfacet
  facet normal -0.707111 -0.707103 0
    outer loop
      vertex 0.999234 -21.6247 -0.4
      vertex 1.37533 -22.0008 -4
      vertex 1.37533 -22.0008 -0.4
    endloop
  endfacet
  facet normal -0.707111 0.707103 0
    outer loop
      vertex 0.999234 -24.3753 -4
      vertex 1.37533 -23.9992 -0.4
      vertex 1.37533 -23.9992 -4
    endloop
  endfacet
  facet normal -0.707111 0.707103 0
    outer loop
      vertex 1.37533 -23.9992 -0.4
      vertex 0.999234 -24.3753 -4
      vertex 0.999234 -24.3753 -0.4
    endloop
  endfacet
  facet normal -0.987688 -0.156436 0
    outer loop
      vertex 1.7 -23 -4
      vertex 1.6168 -22.4747 -0.4
      vertex 1.6168 -22.4747 -4
    endloop
  endfacet
  facet normal -0.987688 -0.156436 0
    outer loop
      vertex 1.6168 -22.4747 -0.4
      vertex 1.7 -23 -4
      vertex 1.7 -23 -0.4
    endloop
  endfacet
  facet normal -0.45404 -0.890981 0
    outer loop
      vertex 0.525329 -21.3832 -4
      vertex 0.999234 -21.6247 -0.4
      vertex 0.525329 -21.3832 -0.4
    endloop
  endfacet
  facet normal -0.45404 -0.890981 -0
    outer loop
      vertex 0.999234 -21.6247 -0.4
      vertex 0.525329 -21.3832 -4
      vertex 0.999234 -21.6247 -4
    endloop
  endfacet
  facet normal 0.453999 -0.891002 0
    outer loop
      vertex -15.9992 -6.62467 -4
      vertex -15.5253 -6.3832 -0.4
      vertex -15.9992 -6.62467 -0.4
    endloop
  endfacet
  facet normal 0.453999 -0.891002 0
    outer loop
      vertex -15.5253 -6.3832 -0.4
      vertex -15.9992 -6.62467 -4
      vertex -15.5253 -6.3832 -4
    endloop
  endfacet
  facet normal 0.156436 -0.987688 0
    outer loop
      vertex -15.5253 -6.3832 -4
      vertex -15 -6.3 -0.4
      vertex -15.5253 -6.3832 -0.4
    endloop
  endfacet
  facet normal 0.156436 -0.987688 0
    outer loop
      vertex -15 -6.3 -0.4
      vertex -15.5253 -6.3832 -4
      vertex -15 -6.3 -4
    endloop
  endfacet
  facet normal 0.707107 -0.707107 0
    outer loop
      vertex -16.3753 -7.00077 -0.4
      vertex -15.9992 -6.62467 -4
      vertex -15.9992 -6.62467 -0.4
    endloop
  endfacet
  facet normal 0.707107 -0.707107 0
    outer loop
      vertex -15.9992 -6.62467 -4
      vertex -16.3753 -7.00077 -0.4
      vertex -16.3753 -7.00077 -4
    endloop
  endfacet
  facet normal -0.98769 -0.156427 0
    outer loop
      vertex -13.3 -8 -4
      vertex -13.3832 -7.47467 -0.4
      vertex -13.3832 -7.47467 -4
    endloop
  endfacet
  facet normal -0.98769 -0.156427 0
    outer loop
      vertex -13.3832 -7.47467 -0.4
      vertex -13.3 -8 -4
      vertex -13.3 -8 -0.4
    endloop
  endfacet
  facet normal 0.890979 0.454044 0
    outer loop
      vertex -16.3753 -8.99923 -0.4
      vertex -16.6168 -8.52533 -4
      vertex -16.6168 -8.52533 -0.4
    endloop
  endfacet
  facet normal 0.890979 0.454044 0
    outer loop
      vertex -16.6168 -8.52533 -4
      vertex -16.3753 -8.99923 -0.4
      vertex -16.3753 -8.99923 -4
    endloop
  endfacet
  facet normal -0.890979 -0.454044 0
    outer loop
      vertex -13.3832 -7.47467 -4
      vertex -13.6247 -7.00077 -0.4
      vertex -13.6247 -7.00077 -4
    endloop
  endfacet
  facet normal -0.890979 -0.454044 0
    outer loop
      vertex -13.6247 -7.00077 -0.4
      vertex -13.3832 -7.47467 -4
      vertex -13.3832 -7.47467 -0.4
    endloop
  endfacet
  facet normal -0.707107 -0.707107 0
    outer loop
      vertex -13.6247 -7.00077 -4
      vertex -14.0008 -6.62467 -0.4
      vertex -14.0008 -6.62467 -4
    endloop
  endfacet
  facet normal -0.707107 -0.707107 0
    outer loop
      vertex -14.0008 -6.62467 -0.4
      vertex -13.6247 -7.00077 -4
      vertex -13.6247 -7.00077 -0.4
    endloop
  endfacet
  facet normal -0.98769 0.156427 0
    outer loop
      vertex -13.3832 -8.52533 -4
      vertex -13.3 -8 -0.4
      vertex -13.3 -8 -4
    endloop
  endfacet
  facet normal -0.98769 0.156427 0
    outer loop
      vertex -13.3 -8 -0.4
      vertex -13.3832 -8.52533 -4
      vertex -13.3832 -8.52533 -0.4
    endloop
  endfacet
  facet normal 0.453999 0.891002 -0
    outer loop
      vertex -15.5253 -9.6168 -4
      vertex -15.9992 -9.37533 -0.4
      vertex -15.5253 -9.6168 -0.4
    endloop
  endfacet
  facet normal 0.453999 0.891002 0
    outer loop
      vertex -15.9992 -9.37533 -0.4
      vertex -15.5253 -9.6168 -4
      vertex -15.9992 -9.37533 -4
    endloop
  endfacet
  facet normal -0.156436 -0.987688 0
    outer loop
      vertex -15 -6.3 -4
      vertex -14.4747 -6.3832 -0.4
      vertex -15 -6.3 -0.4
    endloop
  endfacet
  facet normal -0.156436 -0.987688 -0
    outer loop
      vertex -14.4747 -6.3832 -0.4
      vertex -15 -6.3 -4
      vertex -14.4747 -6.3832 -4
    endloop
  endfacet
  facet normal 0.156436 0.987688 -0
    outer loop
      vertex -15 -9.7 -4
      vertex -15.5253 -9.6168 -0.4
      vertex -15 -9.7 -0.4
    endloop
  endfacet
  facet normal 0.156436 0.987688 0
    outer loop
      vertex -15.5253 -9.6168 -0.4
      vertex -15 -9.7 -4
      vertex -15.5253 -9.6168 -4
    endloop
  endfacet
  facet normal -0.453999 -0.891002 0
    outer loop
      vertex -14.4747 -6.3832 -4
      vertex -14.0008 -6.62467 -0.4
      vertex -14.4747 -6.3832 -0.4
    endloop
  endfacet
  facet normal -0.453999 -0.891002 -0
    outer loop
      vertex -14.0008 -6.62467 -0.4
      vertex -14.4747 -6.3832 -4
      vertex -14.0008 -6.62467 -4
    endloop
  endfacet
  facet normal 0.98769 -0.156427 0
    outer loop
      vertex -16.7 -8 -0.4
      vertex -16.6168 -7.47467 -4
      vertex -16.6168 -7.47467 -0.4
    endloop
  endfacet
  facet normal 0.98769 -0.156427 0
    outer loop
      vertex -16.6168 -7.47467 -4
      vertex -16.7 -8 -0.4
      vertex -16.7 -8 -4
    endloop
  endfacet
  facet normal 0.890979 -0.454044 0
    outer loop
      vertex -16.6168 -7.47467 -0.4
      vertex -16.3753 -7.00077 -4
      vertex -16.3753 -7.00077 -0.4
    endloop
  endfacet
  facet normal 0.890979 -0.454044 0
    outer loop
      vertex -16.3753 -7.00077 -4
      vertex -16.6168 -7.47467 -0.4
      vertex -16.6168 -7.47467 -4
    endloop
  endfacet
  facet normal -0.453999 0.891002 0
    outer loop
      vertex -14.0008 -9.37533 -4
      vertex -14.4747 -9.6168 -0.4
      vertex -14.0008 -9.37533 -0.4
    endloop
  endfacet
  facet normal -0.453999 0.891002 0
    outer loop
      vertex -14.4747 -9.6168 -0.4
      vertex -14.0008 -9.37533 -4
      vertex -14.4747 -9.6168 -4
    endloop
  endfacet
  facet normal 0.98769 0.156427 0
    outer loop
      vertex -16.6168 -8.52533 -0.4
      vertex -16.7 -8 -4
      vertex -16.7 -8 -0.4
    endloop
  endfacet
  facet normal 0.98769 0.156427 0
    outer loop
      vertex -16.7 -8 -4
      vertex -16.6168 -8.52533 -0.4
      vertex -16.6168 -8.52533 -4
    endloop
  endfacet
  facet normal -0.707107 0.707107 0
    outer loop
      vertex -14.0008 -9.37533 -4
      vertex -13.6247 -8.99923 -0.4
      vertex -13.6247 -8.99923 -4
    endloop
  endfacet
  facet normal -0.707107 0.707107 0
    outer loop
      vertex -13.6247 -8.99923 -0.4
      vertex -14.0008 -9.37533 -4
      vertex -14.0008 -9.37533 -0.4
    endloop
  endfacet
  facet normal 0.707107 0.707107 0
    outer loop
      vertex -15.9992 -9.37533 -0.4
      vertex -16.3753 -8.99923 -4
      vertex -16.3753 -8.99923 -0.4
    endloop
  endfacet
  facet normal 0.707107 0.707107 0
    outer loop
      vertex -16.3753 -8.99923 -4
      vertex -15.9992 -9.37533 -0.4
      vertex -15.9992 -9.37533 -4
    endloop
  endfacet
  facet normal -0.156436 0.987688 0
    outer loop
      vertex -14.4747 -9.6168 -4
      vertex -15 -9.7 -0.4
      vertex -14.4747 -9.6168 -0.4
    endloop
  endfacet
  facet normal -0.156436 0.987688 0
    outer loop
      vertex -15 -9.7 -0.4
      vertex -14.4747 -9.6168 -4
      vertex -15 -9.7 -4
    endloop
  endfacet
  facet normal -0.890979 0.454044 0
    outer loop
      vertex -13.6247 -8.99923 -4
      vertex -13.3832 -8.52533 -0.4
      vertex -13.3832 -8.52533 -4
    endloop
  endfacet
  facet normal -0.890979 0.454044 0
    outer loop
      vertex -13.3832 -8.52533 -0.4
      vertex -13.6247 -8.99923 -4
      vertex -13.6247 -8.99923 -0.4
    endloop
  endfacet
  facet normal -0.453999 0.891002 0
    outer loop
      vertex 15.9992 -9.37533 -4
      vertex 15.5253 -9.6168 -0.4
      vertex 15.9992 -9.37533 -0.4
    endloop
  endfacet
  facet normal -0.453999 0.891002 0
    outer loop
      vertex 15.5253 -9.6168 -0.4
      vertex 15.9992 -9.37533 -4
      vertex 15.5253 -9.6168 -4
    endloop
  endfacet
  facet normal -0.156436 0.987688 0
    outer loop
      vertex 15.5253 -9.6168 -4
      vertex 15 -9.7 -0.4
      vertex 15.5253 -9.6168 -0.4
    endloop
  endfacet
  facet normal -0.156436 0.987688 0
    outer loop
      vertex 15 -9.7 -0.4
      vertex 15.5253 -9.6168 -4
      vertex 15 -9.7 -4
    endloop
  endfacet
  facet normal -0.707107 0.707107 0
    outer loop
      vertex 15.9992 -9.37533 -4
      vertex 16.3753 -8.99923 -0.4
      vertex 16.3753 -8.99923 -4
    endloop
  endfacet
  facet normal -0.707107 0.707107 0
    outer loop
      vertex 16.3753 -8.99923 -0.4
      vertex 15.9992 -9.37533 -4
      vertex 15.9992 -9.37533 -0.4
    endloop
  endfacet
  facet normal 0.98769 0.156427 0
    outer loop
      vertex 13.3832 -8.52533 -0.4
      vertex 13.3 -8 -4
      vertex 13.3 -8 -0.4
    endloop
  endfacet
  facet normal 0.98769 0.156427 0
    outer loop
      vertex 13.3 -8 -4
      vertex 13.3832 -8.52533 -0.4
      vertex 13.3832 -8.52533 -4
    endloop
  endfacet
  facet normal -0.890979 -0.454044 0
    outer loop
      vertex 16.6168 -7.47467 -4
      vertex 16.3753 -7.00077 -0.4
      vertex 16.3753 -7.00077 -4
    endloop
  endfacet
  facet normal -0.890979 -0.454044 0
    outer loop
      vertex 16.3753 -7.00077 -0.4
      vertex 16.6168 -7.47467 -4
      vertex 16.6168 -7.47467 -0.4
    endloop
  endfacet
  facet normal 0.890979 0.454044 0
    outer loop
      vertex 13.6247 -8.99923 -0.4
      vertex 13.3832 -8.52533 -4
      vertex 13.3832 -8.52533 -0.4
    endloop
  endfacet
  facet normal 0.890979 0.454044 0
    outer loop
      vertex 13.3832 -8.52533 -4
      vertex 13.6247 -8.99923 -0.4
      vertex 13.6247 -8.99923 -4
    endloop
  endfacet
  facet normal 0.707107 0.707107 0
    outer loop
      vertex 14.0008 -9.37533 -0.4
      vertex 13.6247 -8.99923 -4
      vertex 13.6247 -8.99923 -0.4
    endloop
  endfacet
  facet normal 0.707107 0.707107 0
    outer loop
      vertex 13.6247 -8.99923 -4
      vertex 14.0008 -9.37533 -0.4
      vertex 14.0008 -9.37533 -4
    endloop
  endfacet
  facet normal 0.98769 -0.156427 0
    outer loop
      vertex 13.3 -8 -0.4
      vertex 13.3832 -7.47467 -4
      vertex 13.3832 -7.47467 -0.4
    endloop
  endfacet
  facet normal 0.98769 -0.156427 0
    outer loop
      vertex 13.3832 -7.47467 -4
      vertex 13.3 -8 -0.4
      vertex 13.3 -8 -4
    endloop
  endfacet
  facet normal -0.453999 -0.891002 0
    outer loop
      vertex 15.5253 -6.3832 -4
      vertex 15.9992 -6.62467 -0.4
      vertex 15.5253 -6.3832 -0.4
    endloop
  endfacet
  facet normal -0.453999 -0.891002 -0
    outer loop
      vertex 15.9992 -6.62467 -0.4
      vertex 15.5253 -6.3832 -4
      vertex 15.9992 -6.62467 -4
    endloop
  endfacet
  facet normal 0.156436 0.987688 -0
    outer loop
      vertex 15 -9.7 -4
      vertex 14.4747 -9.6168 -0.4
      vertex 15 -9.7 -0.4
    endloop
  endfacet
  facet normal 0.156436 0.987688 0
    outer loop
      vertex 14.4747 -9.6168 -0.4
      vertex 15 -9.7 -4
      vertex 14.4747 -9.6168 -4
    endloop
  endfacet
  facet normal -0.156436 -0.987688 0
    outer loop
      vertex 15 -6.3 -4
      vertex 15.5253 -6.3832 -0.4
      vertex 15 -6.3 -0.4
    endloop
  endfacet
  facet normal -0.156436 -0.987688 -0
    outer loop
      vertex 15.5253 -6.3832 -0.4
      vertex 15 -6.3 -4
      vertex 15.5253 -6.3832 -4
    endloop
  endfacet
  facet normal 0.453999 0.891002 -0
    outer loop
      vertex 14.4747 -9.6168 -4
      vertex 14.0008 -9.37533 -0.4
      vertex 14.4747 -9.6168 -0.4
    endloop
  endfacet
  facet normal 0.453999 0.891002 0
    outer loop
      vertex 14.0008 -9.37533 -0.4
      vertex 14.4747 -9.6168 -4
      vertex 14.0008 -9.37533 -4
    endloop
  endfacet
  facet normal -0.98769 0.156427 0
    outer loop
      vertex 16.6168 -8.52533 -4
      vertex 16.7 -8 -0.4
      vertex 16.7 -8 -4
    endloop
  endfacet
  facet normal -0.98769 0.156427 0
    outer loop
      vertex 16.7 -8 -0.4
      vertex 16.6168 -8.52533 -4
      vertex 16.6168 -8.52533 -0.4
    endloop
  endfacet
  facet normal -0.890979 0.454044 0
    outer loop
      vertex 16.3753 -8.99923 -4
      vertex 16.6168 -8.52533 -0.4
      vertex 16.6168 -8.52533 -4
    endloop
  endfacet
  facet normal -0.890979 0.454044 0
    outer loop
      vertex 16.6168 -8.52533 -0.4
      vertex 16.3753 -8.99923 -4
      vertex 16.3753 -8.99923 -0.4
    endloop
  endfacet
  facet normal 0.453999 -0.891002 0
    outer loop
      vertex 14.0008 -6.62467 -4
      vertex 14.4747 -6.3832 -0.4
      vertex 14.0008 -6.62467 -0.4
    endloop
  endfacet
  facet normal 0.453999 -0.891002 0
    outer loop
      vertex 14.4747 -6.3832 -0.4
      vertex 14.0008 -6.62467 -4
      vertex 14.4747 -6.3832 -4
    endloop
  endfacet
  facet normal -0.98769 -0.156427 0
    outer loop
      vertex 16.7 -8 -4
      vertex 16.6168 -7.47467 -0.4
      vertex 16.6168 -7.47467 -4
    endloop
  endfacet
  facet normal -0.98769 -0.156427 0
    outer loop
      vertex 16.6168 -7.47467 -0.4
      vertex 16.7 -8 -4
      vertex 16.7 -8 -0.4
    endloop
  endfacet
  facet normal 0.707107 -0.707107 0
    outer loop
      vertex 13.6247 -7.00077 -0.4
      vertex 14.0008 -6.62467 -4
      vertex 14.0008 -6.62467 -0.4
    endloop
  endfacet
  facet normal 0.707107 -0.707107 0
    outer loop
      vertex 14.0008 -6.62467 -4
      vertex 13.6247 -7.00077 -0.4
      vertex 13.6247 -7.00077 -4
    endloop
  endfacet
  facet normal -0.707107 -0.707107 0
    outer loop
      vertex 16.3753 -7.00077 -4
      vertex 15.9992 -6.62467 -0.4
      vertex 15.9992 -6.62467 -4
    endloop
  endfacet
  facet normal -0.707107 -0.707107 0
    outer loop
      vertex 15.9992 -6.62467 -0.4
      vertex 16.3753 -7.00077 -4
      vertex 16.3753 -7.00077 -0.4
    endloop
  endfacet
  facet normal 0.156436 -0.987688 0
    outer loop
      vertex 14.4747 -6.3832 -4
      vertex 15 -6.3 -0.4
      vertex 14.4747 -6.3832 -0.4
    endloop
  endfacet
  facet normal 0.156436 -0.987688 0
    outer loop
      vertex 15 -6.3 -0.4
      vertex 14.4747 -6.3832 -4
      vertex 15 -6.3 -4
    endloop
  endfacet
  facet normal 0.890979 -0.454044 0
    outer loop
      vertex 13.3832 -7.47467 -0.4
      vertex 13.6247 -7.00077 -4
      vertex 13.6247 -7.00077 -0.4
    endloop
  endfacet
  facet normal 0.890979 -0.454044 0
    outer loop
      vertex 13.6247 -7.00077 -4
      vertex 13.3832 -7.47467 -0.4
      vertex 13.3832 -7.47467 -4
    endloop
  endfacet
  facet normal 1 -0 0
    outer loop
      vertex 18 -26 -0.4
      vertex 18 10 -4
      vertex 18 10 -0.4
    endloop
  endfacet
  facet normal 1 0 0
    outer loop
      vertex 18 10 -4
      vertex 18 -26 -0.4
      vertex 18 -26 -4
    endloop
  endfacet
  facet normal 0 0 -1
    outer loop
      vertex 18 10 -4
      vertex 1.6168 6.47467 -4
      vertex 1.7 7 -4
    endloop
  endfacet
  facet normal 0 0 -1
    outer loop
      vertex 1.37533 6.00077 -4
      vertex 1.94454 -6.05546 -4
      vertex 1.61641 -5.7752 -4
    endloop
  endfacet
  facet normal 0 0 -1
    outer loop
      vertex 14.0008 -6.62467 -4
      vertex 1.37533 6.00077 -4
      vertex 1.6168 6.47467 -4
    endloop
  endfacet
  facet normal 0 0 -1
    outer loop
      vertex 0.999234 5.62467 -4
      vertex 1.61641 -5.7752 -4
      vertex 1.24847 -5.54973 -4
    endloop
  endfacet
  facet normal 0 0 -1
    outer loop
      vertex 1.61641 -5.7752 -4
      vertex 0.999234 5.62467 -4
      vertex 1.37533 6.00077 -4
    endloop
  endfacet
  facet normal 0 0 -1
    outer loop
      vertex 0.525329 5.3832 -4
      vertex 1.24847 -5.54973 -4
      vertex 0.849796 -5.38459 -4
    endloop
  endfacet
  facet normal 0 0 -1
    outer loop
      vertex 1.24847 -5.54973 -4
      vertex 0.525329 5.3832 -4
      vertex 0.999234 5.62467 -4
    endloop
  endfacet
  facet normal 0 0 -1
    outer loop
      vertex 0.430194 -5.28386 -4
      vertex 0.525329 5.3832 -4
      vertex 0.849796 -5.38459 -4
    endloop
  endfacet
  facet normal 0 0 -1
    outer loop
      vertex 0 5.3 -4
      vertex 0.430194 -5.28386 -4
      vertex 0 -5.25 -4
    endloop
  endfacet
  facet normal 0 0 -1
    outer loop
      vertex 0.430194 -5.28386 -4
      vertex 0 5.3 -4
      vertex 0.525329 5.3832 -4
    endloop
  endfacet
  facet normal 0 0 -1
    outer loop
      vertex -0.430194 -5.28386 -4
      vertex 0 5.3 -4
      vertex 0 -5.25 -4
    endloop
  endfacet
  facet normal 0 0 -1
    outer loop
      vertex -0.430194 -5.28386 -4
      vertex -0.525329 5.3832 -4
      vertex 0 5.3 -4
    endloop
  endfacet
  facet normal 0 0 -1
    outer loop
      vertex -0.849796 -5.38459 -4
      vertex -0.525329 5.3832 -4
      vertex -0.430194 -5.28386 -4
    endloop
  endfacet
  facet normal 0 0 -1
    outer loop
      vertex -1.24847 -5.54973 -4
      vertex -0.525329 5.3832 -4
      vertex -0.849796 -5.38459 -4
    endloop
  endfacet
  facet normal -0 0 -1
    outer loop
      vertex -0.525329 5.3832 -4
      vertex -1.24847 -5.54973 -4
      vertex -0.999234 5.62467 -4
    endloop
  endfacet
  facet normal 0 0 -1
    outer loop
      vertex -1.61641 -5.7752 -4
      vertex -0.999234 5.62467 -4
      vertex -1.24847 -5.54973 -4
    endloop
  endfacet
  facet normal -0 0 -1
    outer loop
      vertex -0.999234 5.62467 -4
      vertex -1.61641 -5.7752 -4
      vertex -1.37533 6.00077 -4
    endloop
  endfacet
  facet normal 0 0 -1
    outer loop
      vertex -1.94454 -6.05546 -4
      vertex -1.37533 6.00077 -4
      vertex -1.61641 -5.7752 -4
    endloop
  endfacet
  facet normal 0 0 -1
    outer loop
      vertex -14.0008 -6.62467 -4
      vertex -1.37533 6.00077 -4
      vertex -1.94454 -6.05546 -4
    endloop
  endfacet
  facet normal -0 0 -1
    outer loop
      vertex -1.37533 6.00077 -4
      vertex -14.0008 -6.62467 -4
      vertex -1.6168 6.47467 -4
    endloop
  endfacet
  facet normal 0 0 -1
    outer loop
      vertex 18 -26 -4
      vertex 16.7 -8 -4
      vertex 18 10 -4
    endloop
  endfacet
  facet normal 0 0 -1
    outer loop
      vertex 18 -26 -4
      vertex 16.6168 -8.52533 -4
      vertex 16.7 -8 -4
    endloop
  endfacet
  facet normal 0 0 -1
    outer loop
      vertex 18 -26 -4
      vertex 16.3753 -8.99923 -4
      vertex 16.6168 -8.52533 -4
    endloop
  endfacet
  facet normal 0 0 -1
    outer loop
      vertex 18 -26 -4
      vertex 15.9992 -9.37533 -4
      vertex 16.3753 -8.99923 -4
    endloop
  endfacet
  facet normal 0 0 -1
    outer loop
      vertex 18 -26 -4
      vertex 15.5253 -9.6168 -4
      vertex 15.9992 -9.37533 -4
    endloop
  endfacet
  facet normal 0 0 -1
    outer loop
      vertex 18 -26 -4
      vertex 15 -9.7 -4
      vertex 15.5253 -9.6168 -4
    endloop
  endfacet
  facet normal 0 0 -1
    outer loop
      vertex 18 -26 -4
      vertex 14.4747 -9.6168 -4
      vertex 15 -9.7 -4
    endloop
  endfacet
  facet normal 0 0 -1
    outer loop
      vertex 1.6168 -22.4747 -4
      vertex 14.4747 -9.6168 -4
      vertex 18 -26 -4
    endloop
  endfacet
  facet normal -0 0 -1
    outer loop
      vertex 14.4747 -9.6168 -4
      vertex 1.6168 -22.4747 -4
      vertex 14.0008 -9.37533 -4
    endloop
  endfacet
  facet normal 0 0 -1
    outer loop
      vertex 1.37533 -22.0008 -4
      vertex 14.0008 -9.37533 -4
      vertex 1.6168 -22.4747 -4
    endloop
  endfacet
  facet normal 0 0 -1
    outer loop
      vertex 2.71614 -8.43019 -4
      vertex 13.3 -8 -4
      vertex 13.3832 -8.52533 -4
    endloop
  endfacet
  facet normal 0 -0 -1
    outer loop
      vertex 1.94454 -9.94454 -4
      vertex 14.0008 -9.37533 -4
      vertex 1.37533 -22.0008 -4
    endloop
  endfacet
  facet normal -0 0 -1
    outer loop
      vertex 13.3 -8 -4
      vertex 2.71614 -8.43019 -4
      vertex 2.75 -8 -4
    endloop
  endfacet
  facet normal -0 0 -1
    outer loop
      vertex 13.3832 -8.52533 -4
      vertex 2.61541 -8.8498 -4
      vertex 2.71614 -8.43019 -4
    endloop
  endfacet
  facet normal 0 0 -1
    outer loop
      vertex 13.3832 -8.52533 -4
      vertex 2.45027 -9.24847 -4
      vertex 2.61541 -8.8498 -4
    endloop
  endfacet
  facet normal -0 0 -1
    outer loop
      vertex 13.6247 -8.99923 -4
      vertex 2.45027 -9.24847 -4
      vertex 13.3832 -8.52533 -4
    endloop
  endfacet
  facet normal -0 0 -1
    outer loop
      vertex 14.0008 -9.37533 -4
      vertex 2.2248 -9.61641 -4
      vertex 13.6247 -8.99923 -4
    endloop
  endfacet
  facet normal 0 0 -1
    outer loop
      vertex 1.6168 -22.4747 -4
      vertex 18 -26 -4
      vertex 1.7 -23 -4
    endloop
  endfacet
  facet normal 0 0 -1
    outer loop
      vertex 18 -26 -4
      vertex 1.6168 -23.5253 -4
      vertex 1.7 -23 -4
    endloop
  endfacet
  facet normal 0 0 -1
    outer loop
      vertex 18 -26 -4
      vertex 1.37533 -23.9992 -4
      vertex 1.6168 -23.5253 -4
    endloop
  endfacet
  facet normal 0 0 -1
    outer loop
      vertex 18 -26 -4
      vertex 0.999234 -24.3753 -4
      vertex 1.37533 -23.9992 -4
    endloop
  endfacet
  facet normal 0 0 -1
    outer loop
      vertex 18 -26 -4
      vertex 0.525329 -24.6168 -4
      vertex 0.999234 -24.3753 -4
    endloop
  endfacet
  facet normal 0 0 -1
    outer loop
      vertex 18 -26 -4
      vertex 0 -24.7 -4
      vertex 0.525329 -24.6168 -4
    endloop
  endfacet
  facet normal 0 0 -1
    outer loop
      vertex -1.37533 -22.0008 -4
      vertex -2.2248 -9.61641 -4
      vertex -1.94454 -9.94454 -4
    endloop
  endfacet
  facet normal 0 0 -1
    outer loop
      vertex -1.6168 -22.4747 -4
      vertex -14.0008 -9.37533 -4
      vertex -2.2248 -9.61641 -4
    endloop
  endfacet
  facet normal 0 -0 -1
    outer loop
      vertex -13.6247 -8.99923 -4
      vertex -2.2248 -9.61641 -4
      vertex -14.0008 -9.37533 -4
    endloop
  endfacet
  facet normal 0 0 -1
    outer loop
      vertex -2.2248 -9.61641 -4
      vertex -13.6247 -8.99923 -4
      vertex -2.45027 -9.24847 -4
    endloop
  endfacet
  facet normal 0 -0 -1
    outer loop
      vertex -13.3832 -8.52533 -4
      vertex -2.45027 -9.24847 -4
      vertex -13.6247 -8.99923 -4
    endloop
  endfacet
  facet normal 0 0 -1
    outer loop
      vertex -2.45027 -9.24847 -4
      vertex -13.3832 -8.52533 -4
      vertex -2.61541 -8.8498 -4
    endloop
  endfacet
  facet normal 0 0 -1
    outer loop
      vertex -18 -26 -4
      vertex -1.7 -23 -4
      vertex -1.6168 -23.5253 -4
    endloop
  endfacet
  facet normal 0 0 -1
    outer loop
      vertex -18 -26 -4
      vertex -1.6168 -23.5253 -4
      vertex -1.37533 -23.9992 -4
    endloop
  endfacet
  facet normal 0 0 -1
    outer loop
      vertex -2.71614 -8.43019 -4
      vertex -13.3 -8 -4
      vertex -2.75 -8 -4
    endloop
  endfacet
  facet normal 0 -0 -1
    outer loop
      vertex -13.3 -8 -4
      vertex -2.71614 -8.43019 -4
      vertex -13.3832 -8.52533 -4
    endloop
  endfacet
  facet normal 0 0 -1
    outer loop
      vertex -2.61541 -8.8498 -4
      vertex -13.3832 -8.52533 -4
      vertex -2.71614 -8.43019 -4
    endloop
  endfacet
  facet normal 0 0 -1
    outer loop
      vertex -1.6168 -22.4747 -4
      vertex -14.4747 -9.6168 -4
      vertex -14.0008 -9.37533 -4
    endloop
  endfacet
  facet normal -0 0 -1
    outer loop
      vertex -1.6168 -22.4747 -4
      vertex -18 -26 -4
      vertex -14.4747 -9.6168 -4
    endloop
  endfacet
  facet normal 0 0 -1
    outer loop
      vertex -14.4747 -9.6168 -4
      vertex -18 -26 -4
      vertex -15 -9.7 -4
    endloop
  endfacet
  facet normal -0 0 -1
    outer loop
      vertex -15 -9.7 -4
      vertex -18 -26 -4
      vertex -15.5253 -9.6168 -4
    endloop
  endfacet
  facet normal 0 0 -1
    outer loop
      vertex -18 -26 -4
      vertex -1.37533 -23.9992 -4
      vertex -0.999234 -24.3753 -4
    endloop
  endfacet
  facet normal -0 0 -1
    outer loop
      vertex -15.5253 -9.6168 -4
      vertex -18 -26 -4
      vertex -15.9992 -9.37533 -4
    endloop
  endfacet
  facet normal -0 0 -1
    outer loop
      vertex -16.6168 -8.52533 -4
      vertex -18 -26 -4
      vertex -16.7 -8 -4
    endloop
  endfacet
  facet normal -0 0 -1
    outer loop
      vertex -16.3753 -8.99923 -4
      vertex -18 -26 -4
      vertex -16.6168 -8.52533 -4
    endloop
  endfacet
  facet normal -0 0 -1
    outer loop
      vertex -15.9992 -9.37533 -4
      vertex -18 -26 -4
      vertex -16.3753 -8.99923 -4
    endloop
  endfacet
  facet normal -0 0 -1
    outer loop
      vertex -0.525329 -24.6168 -4
      vertex -18 -26 -4
      vertex -0.999234 -24.3753 -4
    endloop
  endfacet
  facet normal -0 0 -1
    outer loop
      vertex 0 -24.7 -4
      vertex -18 -26 -4
      vertex -0.525329 -24.6168 -4
    endloop
  endfacet
  facet normal 0 0 -1
    outer loop
      vertex -18 -26 -4
      vertex 0 -24.7 -4
      vertex 18 -26 -4
    endloop
  endfacet
  facet normal 0 0 -1
    outer loop
      vertex 16.6168 -7.47467 -4
      vertex 18 10 -4
      vertex 16.7 -8 -4
    endloop
  endfacet
  facet normal 0 0 -1
    outer loop
      vertex 16.3753 -7.00077 -4
      vertex 18 10 -4
      vertex 16.6168 -7.47467 -4
    endloop
  endfacet
  facet normal 0 0 -1
    outer loop
      vertex 15.9992 -6.62467 -4
      vertex 18 10 -4
      vertex 16.3753 -7.00077 -4
    endloop
  endfacet
  facet normal 0 0 -1
    outer loop
      vertex 15.5253 -6.3832 -4
      vertex 18 10 -4
      vertex 15.9992 -6.62467 -4
    endloop
  endfacet
  facet normal 0 0 -1
    outer loop
      vertex 15 -6.3 -4
      vertex 18 10 -4
      vertex 15.5253 -6.3832 -4
    endloop
  endfacet
  facet normal 0 0 -1
    outer loop
      vertex 14.4747 -6.3832 -4
      vertex 18 10 -4
      vertex 15 -6.3 -4
    endloop
  endfacet
  facet normal 0 0 -1
    outer loop
      vertex 1.6168 6.47467 -4
      vertex 14.4747 -6.3832 -4
      vertex 14.0008 -6.62467 -4
    endloop
  endfacet
  facet normal 0 0 -1
    outer loop
      vertex 2.2248 -6.38359 -4
      vertex 14.0008 -6.62467 -4
      vertex 13.6247 -7.00077 -4
    endloop
  endfacet
  facet normal 0 0 -1
    outer loop
      vertex 2.45027 -6.75153 -4
      vertex 13.6247 -7.00077 -4
      vertex 13.3832 -7.47467 -4
    endloop
  endfacet
  facet normal 0 0 -1
    outer loop
      vertex 2.71614 -7.56981 -4
      vertex 13.3 -8 -4
      vertex 2.75 -8 -4
    endloop
  endfacet
  facet normal 0 0 -1
    outer loop
      vertex 13.3 -8 -4
      vertex 2.71614 -7.56981 -4
      vertex 13.3832 -7.47467 -4
    endloop
  endfacet
  facet normal 0 0 -1
    outer loop
      vertex 2.61541 -7.1502 -4
      vertex 13.3832 -7.47467 -4
      vertex 2.71614 -7.56981 -4
    endloop
  endfacet
  facet normal 0 0 -1
    outer loop
      vertex 2.45027 -6.75153 -4
      vertex 13.3832 -7.47467 -4
      vertex 2.61541 -7.1502 -4
    endloop
  endfacet
  facet normal 0 0 -1
    outer loop
      vertex 13.6247 -7.00077 -4
      vertex 2.45027 -6.75153 -4
      vertex 2.2248 -6.38359 -4
    endloop
  endfacet
  facet normal 0 0 -1
    outer loop
      vertex 14.0008 -6.62467 -4
      vertex 2.2248 -6.38359 -4
      vertex 1.94454 -6.05546 -4
    endloop
  endfacet
  facet normal 0 0 -1
    outer loop
      vertex 1.37533 6.00077 -4
      vertex 14.0008 -6.62467 -4
      vertex 1.94454 -6.05546 -4
    endloop
  endfacet
  facet normal 0 0 -1
    outer loop
      vertex 1.6168 6.47467 -4
      vertex 18 10 -4
      vertex 14.4747 -6.3832 -4
    endloop
  endfacet
  facet normal 0 0 -1
    outer loop
      vertex 1.6168 7.52533 -4
      vertex 18 10 -4
      vertex 1.7 7 -4
    endloop
  endfacet
  facet normal 0 0 -1
    outer loop
      vertex 1.37533 7.99923 -4
      vertex 18 10 -4
      vertex 1.6168 7.52533 -4
    endloop
  endfacet
  facet normal 0 0 -1
    outer loop
      vertex 0.999234 8.37533 -4
      vertex 18 10 -4
      vertex 1.37533 7.99923 -4
    endloop
  endfacet
  facet normal 0 0 -1
    outer loop
      vertex 0.525329 8.6168 -4
      vertex 18 10 -4
      vertex 0.999234 8.37533 -4
    endloop
  endfacet
  facet normal 0 0 -1
    outer loop
      vertex 0 8.7 -4
      vertex 18 10 -4
      vertex 0.525329 8.6168 -4
    endloop
  endfacet
  facet normal 0 0 -1
    outer loop
      vertex -14.0008 -6.62467 -4
      vertex -1.94454 -6.05546 -4
      vertex -2.2248 -6.38359 -4
    endloop
  endfacet
  facet normal 0 0 -1
    outer loop
      vertex -13.6247 -7.00077 -4
      vertex -2.2248 -6.38359 -4
      vertex -2.45027 -6.75153 -4
    endloop
  endfacet
  facet normal 0 0 -1
    outer loop
      vertex -13.3832 -7.47467 -4
      vertex -2.45027 -6.75153 -4
      vertex -2.61541 -7.1502 -4
    endloop
  endfacet
  facet normal 0 0 -1
    outer loop
      vertex -13.3832 -7.47467 -4
      vertex -2.61541 -7.1502 -4
      vertex -2.71614 -7.56981 -4
    endloop
  endfacet
  facet normal 0 0 -1
    outer loop
      vertex -13.3 -8 -4
      vertex -2.71614 -7.56981 -4
      vertex -2.75 -8 -4
    endloop
  endfacet
  facet normal -0 0 -1
    outer loop
      vertex -2.71614 -7.56981 -4
      vertex -13.3 -8 -4
      vertex -13.3832 -7.47467 -4
    endloop
  endfacet
  facet normal 0 0 -1
    outer loop
      vertex -2.45027 -6.75153 -4
      vertex -13.3832 -7.47467 -4
      vertex -13.6247 -7.00077 -4
    endloop
  endfacet
  facet normal 0 0 -1
    outer loop
      vertex -2.2248 -6.38359 -4
      vertex -13.6247 -7.00077 -4
      vertex -14.0008 -6.62467 -4
    endloop
  endfacet
  facet normal 0 0 -1
    outer loop
      vertex -14.4747 -6.3832 -4
      vertex -1.6168 6.47467 -4
      vertex -14.0008 -6.62467 -4
    endloop
  endfacet
  facet normal 0 0 -1
    outer loop
      vertex -18 10 -4
      vertex -1.6168 6.47467 -4
      vertex -14.4747 -6.3832 -4
    endloop
  endfacet
  facet normal 0 0 -1
    outer loop
      vertex -1.6168 6.47467 -4
      vertex -18 10 -4
      vertex -1.7 7 -4
    endloop
  endfacet
  facet normal 0 0 -1
    outer loop
      vertex -1.7 7 -4
      vertex -18 10 -4
      vertex -1.6168 7.52533 -4
    endloop
  endfacet
  facet normal 0 0 -1
    outer loop
      vertex -18 10 -4
      vertex -14.4747 -6.3832 -4
      vertex -15 -6.3 -4
    endloop
  endfacet
  facet normal 0 0 -1
    outer loop
      vertex -18 10 -4
      vertex -15 -6.3 -4
      vertex -15.5253 -6.3832 -4
    endloop
  endfacet
  facet normal 0 0 -1
    outer loop
      vertex -18 10 -4
      vertex -15.5253 -6.3832 -4
      vertex -15.9992 -6.62467 -4
    endloop
  endfacet
  facet normal 0 0 -1
    outer loop
      vertex -1.6168 7.52533 -4
      vertex -18 10 -4
      vertex -1.37533 7.99923 -4
    endloop
  endfacet
  facet normal 0 0 -1
    outer loop
      vertex -18 10 -4
      vertex -15.9992 -6.62467 -4
      vertex -16.3753 -7.00077 -4
    endloop
  endfacet
  facet normal 0 0 -1
    outer loop
      vertex 0 8.7 -4
      vertex -18 10 -4
      vertex 18 10 -4
    endloop
  endfacet
  facet normal 0 0 -1
    outer loop
      vertex -0.525329 8.6168 -4
      vertex -18 10 -4
      vertex 0 8.7 -4
    endloop
  endfacet
  facet normal 0 0 -1
    outer loop
      vertex -0.999234 8.37533 -4
      vertex -18 10 -4
      vertex -0.525329 8.6168 -4
    endloop
  endfacet
  facet normal 0 0 -1
    outer loop
      vertex -1.37533 7.99923 -4
      vertex -18 10 -4
      vertex -0.999234 8.37533 -4
    endloop
  endfacet
  facet normal 0 0 -1
    outer loop
      vertex -16.6168 -7.47467 -4
      vertex -18 10 -4
      vertex -16.3753 -7.00077 -4
    endloop
  endfacet
  facet normal 0 0 -1
    outer loop
      vertex -16.7 -8 -4
      vertex -18 10 -4
      vertex -16.6168 -7.47467 -4
    endloop
  endfacet
  facet normal 0 0 -1
    outer loop
      vertex -18 10 -4
      vertex -16.7 -8 -4
      vertex -18 -26 -4
    endloop
  endfacet
  facet normal 0 -0 -1
    outer loop
      vertex 2.2248 -9.61641 -4
      vertex 14.0008 -9.37533 -4
      vertex 1.94454 -9.94454 -4
    endloop
  endfacet
  facet normal 0 -0 -1
    outer loop
      vertex 2.45027 -9.24847 -4
      vertex 13.6247 -8.99923 -4
      vertex 2.2248 -9.61641 -4
    endloop
  endfacet
  facet normal 0 0 -1
    outer loop
      vertex 1.94454 -9.94454 -4
      vertex 1.37533 -22.0008 -4
      vertex 1.61641 -10.2248 -4
    endloop
  endfacet
  facet normal 0 0 -1
    outer loop
      vertex 0.999234 -21.6247 -4
      vertex 1.61641 -10.2248 -4
      vertex 1.37533 -22.0008 -4
    endloop
  endfacet
  facet normal 0 0 -1
    outer loop
      vertex 1.61641 -10.2248 -4
      vertex 0.999234 -21.6247 -4
      vertex 1.24847 -10.4503 -4
    endloop
  endfacet
  facet normal 0 0 -1
    outer loop
      vertex 0.525329 -21.3832 -4
      vertex 1.24847 -10.4503 -4
      vertex 0.999234 -21.6247 -4
    endloop
  endfacet
  facet normal 0 0 -1
    outer loop
      vertex 1.24847 -10.4503 -4
      vertex 0.525329 -21.3832 -4
      vertex 0.849796 -10.6154 -4
    endloop
  endfacet
  facet normal 0 0 -1
    outer loop
      vertex 0.525329 -21.3832 -4
      vertex 0.430194 -10.7161 -4
      vertex 0.849796 -10.6154 -4
    endloop
  endfacet
  facet normal 0 0 -1
    outer loop
      vertex 0 -21.3 -4
      vertex 0.430194 -10.7161 -4
      vertex 0.525329 -21.3832 -4
    endloop
  endfacet
  facet normal 0 0 -1
    outer loop
      vertex 0 -21.3 -4
      vertex 0 -10.75 -4
      vertex 0.430194 -10.7161 -4
    endloop
  endfacet
  facet normal 0 0 -1
    outer loop
      vertex 0 -21.3 -4
      vertex -0.430194 -10.7161 -4
      vertex 0 -10.75 -4
    endloop
  endfacet
  facet normal 0 0 -1
    outer loop
      vertex -0.525329 -21.3832 -4
      vertex -0.430194 -10.7161 -4
      vertex 0 -21.3 -4
    endloop
  endfacet
  facet normal 0 0 -1
    outer loop
      vertex -0.525329 -21.3832 -4
      vertex -0.849796 -10.6154 -4
      vertex -0.430194 -10.7161 -4
    endloop
  endfacet
  facet normal 0 0 -1
    outer loop
      vertex -1.24847 -10.4503 -4
      vertex -0.525329 -21.3832 -4
      vertex -0.999234 -21.6247 -4
    endloop
  endfacet
  facet normal 0 0 -1
    outer loop
      vertex -0.525329 -21.3832 -4
      vertex -1.24847 -10.4503 -4
      vertex -0.849796 -10.6154 -4
    endloop
  endfacet
  facet normal 0 0 -1
    outer loop
      vertex -1.61641 -10.2248 -4
      vertex -0.999234 -21.6247 -4
      vertex -1.37533 -22.0008 -4
    endloop
  endfacet
  facet normal 0 0 -1
    outer loop
      vertex -0.999234 -21.6247 -4
      vertex -1.61641 -10.2248 -4
      vertex -1.24847 -10.4503 -4
    endloop
  endfacet
  facet normal 0 0 -1
    outer loop
      vertex -2.2248 -9.61641 -4
      vertex -1.37533 -22.0008 -4
      vertex -1.6168 -22.4747 -4
    endloop
  endfacet
  facet normal 0 0 -1
    outer loop
      vertex -18 -26 -4
      vertex -1.6168 -22.4747 -4
      vertex -1.7 -23 -4
    endloop
  endfacet
  facet normal 0 0 -1
    outer loop
      vertex -1.37533 -22.0008 -4
      vertex -1.94454 -9.94454 -4
      vertex -1.61641 -10.2248 -4
    endloop
  endfacet
  facet normal -1 0 0
    outer loop
      vertex -18 -26 -4
      vertex -18 10 -0.4
      vertex -18 10 -4
    endloop
  endfacet
  facet normal -1 -0 0
    outer loop
      vertex -18 10 -0.4
      vertex -18 -26 -4
      vertex -18 -26 -0.4
    endloop
  endfacet
  facet normal 0 -1 0
    outer loop
      vertex -18 -26 -4
      vertex 18 -26 -0.4
      vertex -18 -26 -0.4
    endloop
  endfacet
  facet normal 0 -1 -0
    outer loop
      vertex 18 -26 -0.4
      vertex -18 -26 -4
      vertex 18 -26 -4
    endloop
  endfacet
  facet normal 0 1 -0
    outer loop
      vertex 18 10 -4
      vertex -18 10 -0.4
      vertex 18 10 -0.4
    endloop
  endfacet
  facet normal 0 1 0
    outer loop
      vertex -18 10 -0.4
      vertex 18 10 -4
      vertex -18 10 -4
    endloop
  endfacet
  facet normal 0 0 1
    outer loop
      vertex 18 -26 -0.4
      vertex 1.6168 -22.4747 -0.4
      vertex 1.7 -23 -0.4
    endloop
  endfacet
  facet normal 0 0 1
    outer loop
      vertex 1.37533 -22.0008 -0.4
      vertex 1.94454 -9.94454 -0.4
      vertex 1.61641 -10.2248 -0.4
    endloop
  endfacet
  facet normal 0 0 1
    outer loop
      vertex 14.0008 -9.37533 -0.4
      vertex 1.37533 -22.0008 -0.4
      vertex 1.6168 -22.4747 -0.4
    endloop
  endfacet
  facet normal 0 0 1
    outer loop
      vertex 0.999234 -21.6247 -0.4
      vertex 1.61641 -10.2248 -0.4
      vertex 1.24847 -10.4503 -0.4
    endloop
  endfacet
  facet normal 0 0 1
    outer loop
      vertex 1.61641 -10.2248 -0.4
      vertex 0.999234 -21.6247 -0.4
      vertex 1.37533 -22.0008 -0.4
    endloop
  endfacet
  facet normal 0 0 1
    outer loop
      vertex 0.525329 -21.3832 -0.4
      vertex 1.24847 -10.4503 -0.4
      vertex 0.849796 -10.6154 -0.4
    endloop
  endfacet
  facet normal 0 0 1
    outer loop
      vertex 1.24847 -10.4503 -0.4
      vertex 0.525329 -21.3832 -0.4
      vertex 0.999234 -21.6247 -0.4
    endloop
  endfacet
  facet normal -0 0 1
    outer loop
      vertex 0.430194 -10.7161 -0.4
      vertex 0.525329 -21.3832 -0.4
      vertex 0.849796 -10.6154 -0.4
    endloop
  endfacet
  facet normal 0 0 1
    outer loop
      vertex 0 -21.3 -0.4
      vertex 0.430194 -10.7161 -0.4
      vertex 0 -10.75 -0.4
    endloop
  endfacet
  facet normal 0 0 1
    outer loop
      vertex 0.430194 -10.7161 -0.4
      vertex 0 -21.3 -0.4
      vertex 0.525329 -21.3832 -0.4
    endloop
  endfacet
  facet normal 0 0 1
    outer loop
      vertex -0.430194 -10.7161 -0.4
      vertex 0 -21.3 -0.4
      vertex 0 -10.75 -0.4
    endloop
  endfacet
  facet normal 0 0 1
    outer loop
      vertex -0.430194 -10.7161 -0.4
      vertex -0.525329 -21.3832 -0.4
      vertex 0 -21.3 -0.4
    endloop
  endfacet
  facet normal 0 0 1
    outer loop
      vertex -0.849796 -10.6154 -0.4
      vertex -0.525329 -21.3832 -0.4
      vertex -0.430194 -10.7161 -0.4
    endloop
  endfacet
  facet normal 0 0 1
    outer loop
      vertex -1.24847 -10.4503 -0.4
      vertex -0.525329 -21.3832 -0.4
      vertex -0.849796 -10.6154 -0.4
    endloop
  endfacet
  facet normal 0 0 1
    outer loop
      vertex -0.525329 -21.3832 -0.4
      vertex -1.24847 -10.4503 -0.4
      vertex -0.999234 -21.6247 -0.4
    endloop
  endfacet
  facet normal 0 0 1
    outer loop
      vertex -1.61641 -10.2248 -0.4
      vertex -0.999234 -21.6247 -0.4
      vertex -1.24847 -10.4503 -0.4
    endloop
  endfacet
  facet normal 0 0 1
    outer loop
      vertex -0.999234 -21.6247 -0.4
      vertex -1.61641 -10.2248 -0.4
      vertex -1.37533 -22.0008 -0.4
    endloop
  endfacet
  facet normal 0 0 1
    outer loop
      vertex -1.94454 -9.94454 -0.4
      vertex -1.37533 -22.0008 -0.4
      vertex -1.61641 -10.2248 -0.4
    endloop
  endfacet
  facet normal 0 0 1
    outer loop
      vertex -14.0008 -9.37533 -0.4
      vertex -1.37533 -22.0008 -0.4
      vertex -1.94454 -9.94454 -0.4
    endloop
  endfacet
  facet normal 0 0 1
    outer loop
      vertex -1.37533 -22.0008 -0.4
      vertex -14.0008 -9.37533 -0.4
      vertex -1.6168 -22.4747 -0.4
    endloop
  endfacet
  facet normal 0 0 1
    outer loop
      vertex 18 10 -0.4
      vertex 16.7 -8 -0.4
      vertex 18 -26 -0.4
    endloop
  endfacet
  facet normal 0 0 1
    outer loop
      vertex 18 10 -0.4
      vertex 16.6168 -7.47467 -0.4
      vertex 16.7 -8 -0.4
    endloop
  endfacet
  facet normal 0 0 1
    outer loop
      vertex 18 10 -0.4
      vertex 16.3753 -7.00077 -0.4
      vertex 16.6168 -7.47467 -0.4
    endloop
  endfacet
  facet normal 0 0 1
    outer loop
      vertex 18 10 -0.4
      vertex 15.9992 -6.62467 -0.4
      vertex 16.3753 -7.00077 -0.4
    endloop
  endfacet
  facet normal 0 0 1
    outer loop
      vertex 18 10 -0.4
      vertex 15.5253 -6.3832 -0.4
      vertex 15.9992 -6.62467 -0.4
    endloop
  endfacet
  facet normal 0 0 1
    outer loop
      vertex 18 10 -0.4
      vertex 15 -6.3 -0.4
      vertex 15.5253 -6.3832 -0.4
    endloop
  endfacet
  facet normal 0 0 1
    outer loop
      vertex 18 10 -0.4
      vertex 14.4747 -6.3832 -0.4
      vertex 15 -6.3 -0.4
    endloop
  endfacet
  facet normal -0 0 1
    outer loop
      vertex 1.6168 6.47467 -0.4
      vertex 14.4747 -6.3832 -0.4
      vertex 18 10 -0.4
    endloop
  endfacet
  facet normal 0 0 1
    outer loop
      vertex 14.4747 -6.3832 -0.4
      vertex 1.6168 6.47467 -0.4
      vertex 14.0008 -6.62467 -0.4
    endloop
  endfacet
  facet normal -0 0 1
    outer loop
      vertex 1.37533 6.00077 -0.4
      vertex 14.0008 -6.62467 -0.4
      vertex 1.6168 6.47467 -0.4
    endloop
  endfacet
  facet normal -0 0 1
    outer loop
      vertex 2.71614 -7.56981 -0.4
      vertex 13.3 -8 -0.4
      vertex 13.3832 -7.47467 -0.4
    endloop
  endfacet
  facet normal -0 -0 1
    outer loop
      vertex 1.94454 -6.05546 -0.4
      vertex 14.0008 -6.62467 -0.4
      vertex 1.37533 6.00077 -0.4
    endloop
  endfacet
  facet normal 0 0 1
    outer loop
      vertex 13.3 -8 -0.4
      vertex 2.71614 -7.56981 -0.4
      vertex 2.75 -8 -0.4
    endloop
  endfacet
  facet normal 0 0 1
    outer loop
      vertex 13.3832 -7.47467 -0.4
      vertex 2.61541 -7.1502 -0.4
      vertex 2.71614 -7.56981 -0.4
    endloop
  endfacet
  facet normal 0 0 1
    outer loop
      vertex 13.3832 -7.47467 -0.4
      vertex 2.45027 -6.75153 -0.4
      vertex 2.61541 -7.1502 -0.4
    endloop
  endfacet
  facet normal 0 0 1
    outer loop
      vertex 13.6247 -7.00077 -0.4
      vertex 2.45027 -6.75153 -0.4
      vertex 13.3832 -7.47467 -0.4
    endloop
  endfacet
  facet normal 0 0 1
    outer loop
      vertex 14.0008 -6.62467 -0.4
      vertex 2.2248 -6.38359 -0.4
      vertex 13.6247 -7.00077 -0.4
    endloop
  endfacet
  facet normal 0 0 1
    outer loop
      vertex 1.6168 6.47467 -0.4
      vertex 18 10 -0.4
      vertex 1.7 7 -0.4
    endloop
  endfacet
  facet normal 0 0 1
    outer loop
      vertex 18 10 -0.4
      vertex 1.6168 7.52533 -0.4
      vertex 1.7 7 -0.4
    endloop
  endfacet
  facet normal 0 0 1
    outer loop
      vertex 18 10 -0.4
      vertex 1.37533 7.99923 -0.4
      vertex 1.6168 7.52533 -0.4
    endloop
  endfacet
  facet normal 0 0 1
    outer loop
      vertex 18 10 -0.4
      vertex 0.999234 8.37533 -0.4
      vertex 1.37533 7.99923 -0.4
    endloop
  endfacet
  facet normal 0 0 1
    outer loop
      vertex 18 10 -0.4
      vertex 0.525329 8.6168 -0.4
      vertex 0.999234 8.37533 -0.4
    endloop
  endfacet
  facet normal 0 0 1
    outer loop
      vertex 18 10 -0.4
      vertex 0 8.7 -0.4
      vertex 0.525329 8.6168 -0.4
    endloop
  endfacet
  facet normal 0 0 1
    outer loop
      vertex -1.37533 6.00077 -0.4
      vertex -2.2248 -6.38359 -0.4
      vertex -1.94454 -6.05546 -0.4
    endloop
  endfacet
  facet normal 0 0 1
    outer loop
      vertex -1.6168 6.47467 -0.4
      vertex -14.0008 -6.62467 -0.4
      vertex -2.2248 -6.38359 -0.4
    endloop
  endfacet
  facet normal 0 -0 1
    outer loop
      vertex -13.6247 -7.00077 -0.4
      vertex -2.2248 -6.38359 -0.4
      vertex -14.0008 -6.62467 -0.4
    endloop
  endfacet
  facet normal 0 0 1
    outer loop
      vertex -2.2248 -6.38359 -0.4
      vertex -13.6247 -7.00077 -0.4
      vertex -2.45027 -6.75153 -0.4
    endloop
  endfacet
  facet normal 0 -0 1
    outer loop
      vertex -13.3832 -7.47467 -0.4
      vertex -2.45027 -6.75153 -0.4
      vertex -13.6247 -7.00077 -0.4
    endloop
  endfacet
  facet normal 0 0 1
    outer loop
      vertex -2.45027 -6.75153 -0.4
      vertex -13.3832 -7.47467 -0.4
      vertex -2.61541 -7.1502 -0.4
    endloop
  endfacet
  facet normal 0 0 1
    outer loop
      vertex -18 10 -0.4
      vertex -1.7 7 -0.4
      vertex -1.6168 7.52533 -0.4
    endloop
  endfacet
  facet normal 0 0 1
    outer loop
      vertex -18 10 -0.4
      vertex -1.6168 7.52533 -0.4
      vertex -1.37533 7.99923 -0.4
    endloop
  endfacet
  facet normal 0 0 1
    outer loop
      vertex -2.71614 -7.56981 -0.4
      vertex -13.3 -8 -0.4
      vertex -2.75 -8 -0.4
    endloop
  endfacet
  facet normal 0 -0 1
    outer loop
      vertex -13.3 -8 -0.4
      vertex -2.71614 -7.56981 -0.4
      vertex -13.3832 -7.47467 -0.4
    endloop
  endfacet
  facet normal 0 0 1
    outer loop
      vertex -2.61541 -7.1502 -0.4
      vertex -13.3832 -7.47467 -0.4
      vertex -2.71614 -7.56981 -0.4
    endloop
  endfacet
  facet normal 0 0 1
    outer loop
      vertex -1.6168 6.47467 -0.4
      vertex -14.4747 -6.3832 -0.4
      vertex -14.0008 -6.62467 -0.4
    endloop
  endfacet
  facet normal 0 0 1
    outer loop
      vertex -1.6168 6.47467 -0.4
      vertex -18 10 -0.4
      vertex -14.4747 -6.3832 -0.4
    endloop
  endfacet
  facet normal 0 0 1
    outer loop
      vertex -14.4747 -6.3832 -0.4
      vertex -18 10 -0.4
      vertex -15 -6.3 -0.4
    endloop
  endfacet
  facet normal 0 0 1
    outer loop
      vertex -15 -6.3 -0.4
      vertex -18 10 -0.4
      vertex -15.5253 -6.3832 -0.4
    endloop
  endfacet
  facet normal 0 0 1
    outer loop
      vertex -18 10 -0.4
      vertex -1.37533 7.99923 -0.4
      vertex -0.999234 8.37533 -0.4
    endloop
  endfacet
  facet normal 0 0 1
    outer loop
      vertex -15.5253 -6.3832 -0.4
      vertex -18 10 -0.4
      vertex -15.9992 -6.62467 -0.4
    endloop
  endfacet
  facet normal 0 0 1
    outer loop
      vertex -16.6168 -7.47467 -0.4
      vertex -18 10 -0.4
      vertex -16.7 -8 -0.4
    endloop
  endfacet
  facet normal 0 0 1
    outer loop
      vertex -16.3753 -7.00077 -0.4
      vertex -18 10 -0.4
      vertex -16.6168 -7.47467 -0.4
    endloop
  endfacet
  facet normal 0 0 1
    outer loop
      vertex -15.9992 -6.62467 -0.4
      vertex -18 10 -0.4
      vertex -16.3753 -7.00077 -0.4
    endloop
  endfacet
  facet normal 0 0 1
    outer loop
      vertex -0.525329 8.6168 -0.4
      vertex -18 10 -0.4
      vertex -0.999234 8.37533 -0.4
    endloop
  endfacet
  facet normal 0 0 1
    outer loop
      vertex 0 8.7 -0.4
      vertex -18 10 -0.4
      vertex -0.525329 8.6168 -0.4
    endloop
  endfacet
  facet normal -0 0 1
    outer loop
      vertex -18 10 -0.4
      vertex 0 8.7 -0.4
      vertex 18 10 -0.4
    endloop
  endfacet
  facet normal -0 0 1
    outer loop
      vertex 16.6168 -8.52533 -0.4
      vertex 18 -26 -0.4
      vertex 16.7 -8 -0.4
    endloop
  endfacet
  facet normal -0 0 1
    outer loop
      vertex 16.3753 -8.99923 -0.4
      vertex 18 -26 -0.4
      vertex 16.6168 -8.52533 -0.4
    endloop
  endfacet
  facet normal -0 0 1
    outer loop
      vertex 15.9992 -9.37533 -0.4
      vertex 18 -26 -0.4
      vertex 16.3753 -8.99923 -0.4
    endloop
  endfacet
  facet normal -0 0 1
    outer loop
      vertex 15.5253 -9.6168 -0.4
      vertex 18 -26 -0.4
      vertex 15.9992 -9.37533 -0.4
    endloop
  endfacet
  facet normal -0 0 1
    outer loop
      vertex 15 -9.7 -0.4
      vertex 18 -26 -0.4
      vertex 15.5253 -9.6168 -0.4
    endloop
  endfacet
  facet normal 0 0 1
    outer loop
      vertex 14.4747 -9.6168 -0.4
      vertex 18 -26 -0.4
      vertex 15 -9.7 -0.4
    endloop
  endfacet
  facet normal 0 0 1
    outer loop
      vertex 1.6168 -22.4747 -0.4
      vertex 14.4747 -9.6168 -0.4
      vertex 14.0008 -9.37533 -0.4
    endloop
  endfacet
  facet normal 0 0 1
    outer loop
      vertex 2.2248 -9.61641 -0.4
      vertex 14.0008 -9.37533 -0.4
      vertex 13.6247 -8.99923 -0.4
    endloop
  endfacet
  facet normal 0 0 1
    outer loop
      vertex 2.45027 -9.24847 -0.4
      vertex 13.6247 -8.99923 -0.4
      vertex 13.3832 -8.52533 -0.4
    endloop
  endfacet
  facet normal 0 0 1
    outer loop
      vertex 2.71614 -8.43019 -0.4
      vertex 13.3 -8 -0.4
      vertex 2.75 -8 -0.4
    endloop
  endfacet
  facet normal 0 0 1
    outer loop
      vertex 13.3 -8 -0.4
      vertex 2.71614 -8.43019 -0.4
      vertex 13.3832 -8.52533 -0.4
    endloop
  endfacet
  facet normal 0 0 1
    outer loop
      vertex 2.61541 -8.8498 -0.4
      vertex 13.3832 -8.52533 -0.4
      vertex 2.71614 -8.43019 -0.4
    endloop
  endfacet
  facet normal 0 0 1
    outer loop
      vertex 2.45027 -9.24847 -0.4
      vertex 13.3832 -8.52533 -0.4
      vertex 2.61541 -8.8498 -0.4
    endloop
  endfacet
  facet normal 0 0 1
    outer loop
      vertex 13.6247 -8.99923 -0.4
      vertex 2.45027 -9.24847 -0.4
      vertex 2.2248 -9.61641 -0.4
    endloop
  endfacet
  facet normal 0 0 1
    outer loop
      vertex 14.0008 -9.37533 -0.4
      vertex 2.2248 -9.61641 -0.4
      vertex 1.94454 -9.94454 -0.4
    endloop
  endfacet
  facet normal 0 0 1
    outer loop
      vertex 1.37533 -22.0008 -0.4
      vertex 14.0008 -9.37533 -0.4
      vertex 1.94454 -9.94454 -0.4
    endloop
  endfacet
  facet normal -0 0 1
    outer loop
      vertex 1.6168 -22.4747 -0.4
      vertex 18 -26 -0.4
      vertex 14.4747 -9.6168 -0.4
    endloop
  endfacet
  facet normal -0 0 1
    outer loop
      vertex 1.6168 -23.5253 -0.4
      vertex 18 -26 -0.4
      vertex 1.7 -23 -0.4
    endloop
  endfacet
  facet normal -0 0 1
    outer loop
      vertex 1.37533 -23.9992 -0.4
      vertex 18 -26 -0.4
      vertex 1.6168 -23.5253 -0.4
    endloop
  endfacet
  facet normal -0 0 1
    outer loop
      vertex 0.999234 -24.3753 -0.4
      vertex 18 -26 -0.4
      vertex 1.37533 -23.9992 -0.4
    endloop
  endfacet
  facet normal -0 0 1
    outer loop
      vertex 0.525329 -24.6168 -0.4
      vertex 18 -26 -0.4
      vertex 0.999234 -24.3753 -0.4
    endloop
  endfacet
  facet normal -0 0 1
    outer loop
      vertex 0 -24.7 -0.4
      vertex 18 -26 -0.4
      vertex 0.525329 -24.6168 -0.4
    endloop
  endfacet
  facet normal 0 0 1
    outer loop
      vertex -14.0008 -9.37533 -0.4
      vertex -1.94454 -9.94454 -0.4
      vertex -2.2248 -9.61641 -0.4
    endloop
  endfacet
  facet normal 0 0 1
    outer loop
      vertex -13.6247 -8.99923 -0.4
      vertex -2.2248 -9.61641 -0.4
      vertex -2.45027 -9.24847 -0.4
    endloop
  endfacet
  facet normal 0 0 1
    outer loop
      vertex -13.3832 -8.52533 -0.4
      vertex -2.45027 -9.24847 -0.4
      vertex -2.61541 -8.8498 -0.4
    endloop
  endfacet
  facet normal -0 0 1
    outer loop
      vertex -13.3832 -8.52533 -0.4
      vertex -2.61541 -8.8498 -0.4
      vertex -2.71614 -8.43019 -0.4
    endloop
  endfacet
  facet normal -0 0 1
    outer loop
      vertex -13.3 -8 -0.4
      vertex -2.71614 -8.43019 -0.4
      vertex -2.75 -8 -0.4
    endloop
  endfacet
  facet normal 0 0 1
    outer loop
      vertex -2.71614 -8.43019 -0.4
      vertex -13.3 -8 -0.4
      vertex -13.3832 -8.52533 -0.4
    endloop
  endfacet
  facet normal 0 0 1
    outer loop
      vertex -2.45027 -9.24847 -0.4
      vertex -13.3832 -8.52533 -0.4
      vertex -13.6247 -8.99923 -0.4
    endloop
  endfacet
  facet normal 0 0 1
    outer loop
      vertex -2.2248 -9.61641 -0.4
      vertex -13.6247 -8.99923 -0.4
      vertex -14.0008 -9.37533 -0.4
    endloop
  endfacet
  facet normal -0 0 1
    outer loop
      vertex -14.4747 -9.6168 -0.4
      vertex -1.6168 -22.4747 -0.4
      vertex -14.0008 -9.37533 -0.4
    endloop
  endfacet
  facet normal 0 0 1
    outer loop
      vertex -18 -26 -0.4
      vertex -1.6168 -22.4747 -0.4
      vertex -14.4747 -9.6168 -0.4
    endloop
  endfacet
  facet normal 0 0 1
    outer loop
      vertex -1.6168 -22.4747 -0.4
      vertex -18 -26 -0.4
      vertex -1.7 -23 -0.4
    endloop
  endfacet
  facet normal 0 0 1
    outer loop
      vertex -1.7 -23 -0.4
      vertex -18 -26 -0.4
      vertex -1.6168 -23.5253 -0.4
    endloop
  endfacet
  facet normal 0 0 1
    outer loop
      vertex -18 -26 -0.4
      vertex -14.4747 -9.6168 -0.4
      vertex -15 -9.7 -0.4
    endloop
  endfacet
  facet normal 0 0 1
    outer loop
      vertex -18 -26 -0.4
      vertex -15 -9.7 -0.4
      vertex -15.5253 -9.6168 -0.4
    endloop
  endfacet
  facet normal 0 0 1
    outer loop
      vertex -18 -26 -0.4
      vertex -15.5253 -9.6168 -0.4
      vertex -15.9992 -9.37533 -0.4
    endloop
  endfacet
  facet normal 0 0 1
    outer loop
      vertex -1.6168 -23.5253 -0.4
      vertex -18 -26 -0.4
      vertex -1.37533 -23.9992 -0.4
    endloop
  endfacet
  facet normal 0 0 1
    outer loop
      vertex -18 -26 -0.4
      vertex -15.9992 -9.37533 -0.4
      vertex -16.3753 -8.99923 -0.4
    endloop
  endfacet
  facet normal 0 0 1
    outer loop
      vertex 0 -24.7 -0.4
      vertex -18 -26 -0.4
      vertex 18 -26 -0.4
    endloop
  endfacet
  facet normal 0 0 1
    outer loop
      vertex -0.525329 -24.6168 -0.4
      vertex -18 -26 -0.4
      vertex 0 -24.7 -0.4
    endloop
  endfacet
  facet normal 0 0 1
    outer loop
      vertex -0.999234 -24.3753 -0.4
      vertex -18 -26 -0.4
      vertex -0.525329 -24.6168 -0.4
    endloop
  endfacet
  facet normal 0 0 1
    outer loop
      vertex -1.37533 -23.9992 -0.4
      vertex -18 -26 -0.4
      vertex -0.999234 -24.3753 -0.4
    endloop
  endfacet
  facet normal 0 0 1
    outer loop
      vertex -16.6168 -8.52533 -0.4
      vertex -18 -26 -0.4
      vertex -16.3753 -8.99923 -0.4
    endloop
  endfacet
  facet normal 0 0 1
    outer loop
      vertex -16.7 -8 -0.4
      vertex -18 -26 -0.4
      vertex -16.6168 -8.52533 -0.4
    endloop
  endfacet
  facet normal 0 0 1
    outer loop
      vertex -18 -26 -0.4
      vertex -16.7 -8 -0.4
      vertex -18 10 -0.4
    endloop
  endfacet
  facet normal -0 -0 1
    outer loop
      vertex 2.2248 -6.38359 -0.4
      vertex 14.0008 -6.62467 -0.4
      vertex 1.94454 -6.05546 -0.4
    endloop
  endfacet
  facet normal -0 -0 1
    outer loop
      vertex 2.45027 -6.75153 -0.4
      vertex 13.6247 -7.00077 -0.4
      vertex 2.2248 -6.38359 -0.4
    endloop
  endfacet
  facet normal 0 0 1
    outer loop
      vertex 1.94454 -6.05546 -0.4
      vertex 1.37533 6.00077 -0.4
      vertex 1.61641 -5.7752 -0.4
    endloop
  endfacet
  facet normal -0 0 1
    outer loop
      vertex 0.999234 5.62467 -0.4
      vertex 1.61641 -5.7752 -0.4
      vertex 1.37533 6.00077 -0.4
    endloop
  endfacet
  facet normal 0 0 1
    outer loop
      vertex 1.61641 -5.7752 -0.4
      vertex 0.999234 5.62467 -0.4
      vertex 1.24847 -5.54973 -0.4
    endloop
  endfacet
  facet normal -0 0 1
    outer loop
      vertex 0.525329 5.3832 -0.4
      vertex 1.24847 -5.54973 -0.4
      vertex 0.999234 5.62467 -0.4
    endloop
  endfacet
  facet normal 0 0 1
    outer loop
      vertex 1.24847 -5.54973 -0.4
      vertex 0.525329 5.3832 -0.4
      vertex 0.849796 -5.38459 -0.4
    endloop
  endfacet
  facet normal 0 0 1
    outer loop
      vertex 0.525329 5.3832 -0.4
      vertex 0.430194 -5.28386 -0.4
      vertex 0.849796 -5.38459 -0.4
    endloop
  endfacet
  facet normal -0 0 1
    outer loop
      vertex 0 5.3 -0.4
      vertex 0.430194 -5.28386 -0.4
      vertex 0.525329 5.3832 -0.4
    endloop
  endfacet
  facet normal 0 0 1
    outer loop
      vertex 0 5.3 -0.4
      vertex 0 -5.25 -0.4
      vertex 0.430194 -5.28386 -0.4
    endloop
  endfacet
  facet normal 0 0 1
    outer loop
      vertex 0 5.3 -0.4
      vertex -0.430194 -5.28386 -0.4
      vertex 0 -5.25 -0.4
    endloop
  endfacet
  facet normal 0 0 1
    outer loop
      vertex -0.525329 5.3832 -0.4
      vertex -0.430194 -5.28386 -0.4
      vertex 0 5.3 -0.4
    endloop
  endfacet
  facet normal 0 0 1
    outer loop
      vertex -0.525329 5.3832 -0.4
      vertex -0.849796 -5.38459 -0.4
      vertex -0.430194 -5.28386 -0.4
    endloop
  endfacet
  facet normal 0 0 1
    outer loop
      vertex -1.24847 -5.54973 -0.4
      vertex -0.525329 5.3832 -0.4
      vertex -0.999234 5.62467 -0.4
    endloop
  endfacet
  facet normal 0 0 1
    outer loop
      vertex -0.525329 5.3832 -0.4
      vertex -1.24847 -5.54973 -0.4
      vertex -0.849796 -5.38459 -0.4
    endloop
  endfacet
  facet normal 0 0 1
    outer loop
      vertex -1.61641 -5.7752 -0.4
      vertex -0.999234 5.62467 -0.4
      vertex -1.37533 6.00077 -0.4
    endloop
  endfacet
  facet normal 0 0 1
    outer loop
      vertex -0.999234 5.62467 -0.4
      vertex -1.61641 -5.7752 -0.4
      vertex -1.24847 -5.54973 -0.4
    endloop
  endfacet
  facet normal 0 0 1
    outer loop
      vertex -2.2248 -6.38359 -0.4
      vertex -1.37533 6.00077 -0.4
      vertex -1.6168 6.47467 -0.4
    endloop
  endfacet
  facet normal 0 0 1
    outer loop
      vertex -18 10 -0.4
      vertex -1.6168 6.47467 -0.4
      vertex -1.7 7 -0.4
    endloop
  endfacet
  facet normal 0 0 1
    outer loop
      vertex -1.37533 6.00077 -0.4
      vertex -1.94454 -6.05546 -0.4
      vertex -1.61641 -5.7752 -0.4
    endloop
  endfacet
  facet normal -0.972375 -0.233425 0
    outer loop
      vertex 2.71614 -7.56981 -4
      vertex 2.61541 -7.1502 -0.4
      vertex 2.61541 -7.1502 -4
    endloop
  endfacet
  facet normal -0.972375 -0.233425 0
    outer loop
      vertex 2.61541 -7.1502 -0.4
      vertex 2.71614 -7.56981 -4
      vertex 2.71614 -7.56981 -0.4
    endloop
  endfacet
  facet normal -0.233429 -0.972374 0
    outer loop
      vertex 0.430194 -5.28386 -4
      vertex 0.849796 -5.38459 -0.4
      vertex 0.430194 -5.28386 -0.4
    endloop
  endfacet
  facet normal -0.233429 -0.972374 -0
    outer loop
      vertex 0.849796 -5.38459 -0.4
      vertex 0.430194 -5.28386 -4
      vertex 0.849796 -5.38459 -4
    endloop
  endfacet
  facet normal -0.972375 0.233425 0
    outer loop
      vertex 2.61541 -8.8498 -4
      vertex 2.71614 -8.43019 -0.4
      vertex 2.71614 -8.43019 -4
    endloop
  endfacet
  facet normal -0.972375 0.233425 0
    outer loop
      vertex 2.71614 -8.43019 -0.4
      vertex 2.61541 -8.8498 -4
      vertex 2.61541 -8.8498 -0.4
    endloop
  endfacet
  facet normal -0.996917 0.0784667 0
    outer loop
      vertex 2.71614 -8.43019 -4
      vertex 2.75 -8 -0.4
      vertex 2.75 -8 -4
    endloop
  endfacet
  facet normal -0.996917 0.0784667 0
    outer loop
      vertex 2.75 -8 -0.4
      vertex 2.71614 -8.43019 -4
      vertex 2.71614 -8.43019 -0.4
    endloop
  endfacet
  facet normal -0.923875 0.382694 0
    outer loop
      vertex 2.45027 -9.24847 -4
      vertex 2.61541 -8.8498 -0.4
      vertex 2.61541 -8.8498 -4
    endloop
  endfacet
  facet normal -0.923875 0.382694 0
    outer loop
      vertex 2.61541 -8.8498 -0.4
      vertex 2.45027 -9.24847 -4
      vertex 2.45027 -9.24847 -0.4
    endloop
  endfacet
  facet normal 0.0785581 0.99691 -0
    outer loop
      vertex 0 -10.75 -4
      vertex -0.430194 -10.7161 -0.4
      vertex 0 -10.75 -0.4
    endloop
  endfacet
  facet normal 0.0785581 0.99691 0
    outer loop
      vertex -0.430194 -10.7161 -0.4
      vertex 0 -10.75 -4
      vertex -0.430194 -10.7161 -4
    endloop
  endfacet
  facet normal 0.852644 0.522492 0
    outer loop
      vertex -2.2248 -9.61641 -0.4
      vertex -2.45027 -9.24847 -4
      vertex -2.45027 -9.24847 -0.4
    endloop
  endfacet
  facet normal 0.852644 0.522492 0
    outer loop
      vertex -2.45027 -9.24847 -4
      vertex -2.2248 -9.61641 -0.4
      vertex -2.2248 -9.61641 -4
    endloop
  endfacet
  facet normal 0.760394 0.649462 0
    outer loop
      vertex -1.94454 -9.94454 -0.4
      vertex -2.2248 -9.61641 -4
      vertex -2.2248 -9.61641 -0.4
    endloop
  endfacet
  facet normal 0.760394 0.649462 0
    outer loop
      vertex -2.2248 -9.61641 -4
      vertex -1.94454 -9.94454 -0.4
      vertex -1.94454 -9.94454 -4
    endloop
  endfacet
  facet normal 0.923875 -0.382694 0
    outer loop
      vertex -2.61541 -7.1502 -0.4
      vertex -2.45027 -6.75153 -4
      vertex -2.45027 -6.75153 -0.4
    endloop
  endfacet
  facet normal 0.923875 -0.382694 0
    outer loop
      vertex -2.45027 -6.75153 -4
      vertex -2.61541 -7.1502 -0.4
      vertex -2.61541 -7.1502 -4
    endloop
  endfacet
  facet normal -0.923875 -0.382694 0
    outer loop
      vertex 2.61541 -7.1502 -4
      vertex 2.45027 -6.75153 -0.4
      vertex 2.45027 -6.75153 -4
    endloop
  endfacet
  facet normal -0.923875 -0.382694 0
    outer loop
      vertex 2.45027 -6.75153 -0.4
      vertex 2.61541 -7.1502 -4
      vertex 2.61541 -7.1502 -0.4
    endloop
  endfacet
  facet normal -0.078466 -0.996917 0
    outer loop
      vertex 0 -5.25 -4
      vertex 0.430194 -5.28386 -0.4
      vertex 0 -5.25 -0.4
    endloop
  endfacet
  facet normal -0.078466 -0.996917 -0
    outer loop
      vertex 0.430194 -5.28386 -0.4
      vertex 0 -5.25 -4
      vertex 0.430194 -5.28386 -4
    endloop
  endfacet
  facet normal 0.522542 0.852613 -0
    outer loop
      vertex -1.24847 -10.4503 -4
      vertex -1.61641 -10.2248 -0.4
      vertex -1.24847 -10.4503 -0.4
    endloop
  endfacet
  facet normal 0.522542 0.852613 0
    outer loop
      vertex -1.61641 -10.2248 -0.4
      vertex -1.24847 -10.4503 -4
      vertex -1.61641 -10.2248 -4
    endloop
  endfacet
  facet normal -0.649462 -0.760394 0
    outer loop
      vertex 1.61641 -5.7752 -4
      vertex 1.94454 -6.05546 -0.4
      vertex 1.61641 -5.7752 -0.4
    endloop
  endfacet
  facet normal -0.649462 -0.760394 -0
    outer loop
      vertex 1.94454 -6.05546 -0.4
      vertex 1.61641 -5.7752 -4
      vertex 1.94454 -6.05546 -4
    endloop
  endfacet
  facet normal -0.852644 -0.522492 0
    outer loop
      vertex 2.45027 -6.75153 -4
      vertex 2.2248 -6.38359 -0.4
      vertex 2.2248 -6.38359 -4
    endloop
  endfacet
  facet normal -0.852644 -0.522492 0
    outer loop
      vertex 2.2248 -6.38359 -0.4
      vertex 2.45027 -6.75153 -4
      vertex 2.45027 -6.75153 -0.4
    endloop
  endfacet
  facet normal 0.923875 0.382694 0
    outer loop
      vertex -2.45027 -9.24847 -0.4
      vertex -2.61541 -8.8498 -4
      vertex -2.61541 -8.8498 -0.4
    endloop
  endfacet
  facet normal 0.923875 0.382694 0
    outer loop
      vertex -2.61541 -8.8498 -4
      vertex -2.45027 -9.24847 -0.4
      vertex -2.45027 -9.24847 -4
    endloop
  endfacet
  facet normal -0.382691 -0.923876 0
    outer loop
      vertex 0.849796 -5.38459 -4
      vertex 1.24847 -5.54973 -0.4
      vertex 0.849796 -5.38459 -0.4
    endloop
  endfacet
  facet normal -0.382691 -0.923876 -0
    outer loop
      vertex 1.24847 -5.54973 -0.4
      vertex 0.849796 -5.38459 -4
      vertex 1.24847 -5.54973 -4
    endloop
  endfacet
  facet normal 0.972375 -0.233425 0
    outer loop
      vertex -2.71614 -7.56981 -0.4
      vertex -2.61541 -7.1502 -4
      vertex -2.61541 -7.1502 -0.4
    endloop
  endfacet
  facet normal 0.972375 -0.233425 0
    outer loop
      vertex -2.61541 -7.1502 -4
      vertex -2.71614 -7.56981 -0.4
      vertex -2.71614 -7.56981 -4
    endloop
  endfacet
  facet normal -0.852644 0.522492 0
    outer loop
      vertex 2.2248 -9.61641 -4
      vertex 2.45027 -9.24847 -0.4
      vertex 2.45027 -9.24847 -4
    endloop
  endfacet
  facet normal -0.852644 0.522492 0
    outer loop
      vertex 2.45027 -9.24847 -0.4
      vertex 2.2248 -9.61641 -4
      vertex 2.2248 -9.61641 -0.4
    endloop
  endfacet
  facet normal 0.382612 0.923909 -0
    outer loop
      vertex -0.849796 -10.6154 -4
      vertex -1.24847 -10.4503 -0.4
      vertex -0.849796 -10.6154 -0.4
    endloop
  endfacet
  facet normal 0.382612 0.923909 0
    outer loop
      vertex -1.24847 -10.4503 -0.4
      vertex -0.849796 -10.6154 -4
      vertex -1.24847 -10.4503 -4
    endloop
  endfacet
  facet normal 0.233363 0.97239 -0
    outer loop
      vertex -0.430194 -10.7161 -4
      vertex -0.849796 -10.6154 -0.4
      vertex -0.430194 -10.7161 -0.4
    endloop
  endfacet
  facet normal 0.233363 0.97239 0
    outer loop
      vertex -0.849796 -10.6154 -0.4
      vertex -0.430194 -10.7161 -4
      vertex -0.849796 -10.6154 -4
    endloop
  endfacet
  facet normal 0.972375 0.233425 0
    outer loop
      vertex -2.61541 -8.8498 -0.4
      vertex -2.71614 -8.43019 -4
      vertex -2.71614 -8.43019 -0.4
    endloop
  endfacet
  facet normal 0.972375 0.233425 0
    outer loop
      vertex -2.71614 -8.43019 -4
      vertex -2.61541 -8.8498 -0.4
      vertex -2.61541 -8.8498 -4
    endloop
  endfacet
  facet normal 0.382691 -0.923876 0
    outer loop
      vertex -1.24847 -5.54973 -4
      vertex -0.849796 -5.38459 -0.4
      vertex -1.24847 -5.54973 -0.4
    endloop
  endfacet
  facet normal 0.382691 -0.923876 0
    outer loop
      vertex -0.849796 -5.38459 -0.4
      vertex -1.24847 -5.54973 -4
      vertex -0.849796 -5.38459 -4
    endloop
  endfacet
  facet normal 0.649462 0.760394 -0
    outer loop
      vertex -1.61641 -10.2248 -4
      vertex -1.94454 -9.94454 -0.4
      vertex -1.61641 -10.2248 -0.4
    endloop
  endfacet
  facet normal 0.649462 0.760394 0
    outer loop
      vertex -1.94454 -9.94454 -0.4
      vertex -1.61641 -10.2248 -4
      vertex -1.94454 -9.94454 -4
    endloop
  endfacet
  facet normal -0.233363 0.97239 0
    outer loop
      vertex 0.849796 -10.6154 -4
      vertex 0.430194 -10.7161 -0.4
      vertex 0.849796 -10.6154 -0.4
    endloop
  endfacet
  facet normal -0.233363 0.97239 0
    outer loop
      vertex 0.430194 -10.7161 -0.4
      vertex 0.849796 -10.6154 -4
      vertex 0.430194 -10.7161 -4
    endloop
  endfacet
  facet normal -0.382612 0.923909 0
    outer loop
      vertex 1.24847 -10.4503 -4
      vertex 0.849796 -10.6154 -0.4
      vertex 1.24847 -10.4503 -0.4
    endloop
  endfacet
  facet normal -0.382612 0.923909 0
    outer loop
      vertex 0.849796 -10.6154 -0.4
      vertex 1.24847 -10.4503 -4
      vertex 0.849796 -10.6154 -4
    endloop
  endfacet
  facet normal -0.522492 -0.852644 0
    outer loop
      vertex 1.24847 -5.54973 -4
      vertex 1.61641 -5.7752 -0.4
      vertex 1.24847 -5.54973 -0.4
    endloop
  endfacet
  facet normal -0.522492 -0.852644 -0
    outer loop
      vertex 1.61641 -5.7752 -0.4
      vertex 1.24847 -5.54973 -4
      vertex 1.61641 -5.7752 -4
    endloop
  endfacet
  facet normal -0.522542 0.852613 0
    outer loop
      vertex 1.61641 -10.2248 -4
      vertex 1.24847 -10.4503 -0.4
      vertex 1.61641 -10.2248 -0.4
    endloop
  endfacet
  facet normal -0.522542 0.852613 0
    outer loop
      vertex 1.24847 -10.4503 -0.4
      vertex 1.61641 -10.2248 -4
      vertex 1.24847 -10.4503 -4
    endloop
  endfacet
  facet normal -0.649462 0.760394 0
    outer loop
      vertex 1.94454 -9.94454 -4
      vertex 1.61641 -10.2248 -0.4
      vertex 1.94454 -9.94454 -0.4
    endloop
  endfacet
  facet normal -0.649462 0.760394 0
    outer loop
      vertex 1.61641 -10.2248 -0.4
      vertex 1.94454 -9.94454 -4
      vertex 1.61641 -10.2248 -4
    endloop
  endfacet
  facet normal -0.996917 -0.0784667 0
    outer loop
      vertex 2.75 -8 -4
      vertex 2.71614 -7.56981 -0.4
      vertex 2.71614 -7.56981 -4
    endloop
  endfacet
  facet normal -0.996917 -0.0784667 0
    outer loop
      vertex 2.71614 -7.56981 -0.4
      vertex 2.75 -8 -4
      vertex 2.75 -8 -0.4
    endloop
  endfacet
  facet normal -0.760394 -0.649462 0
    outer loop
      vertex 2.2248 -6.38359 -4
      vertex 1.94454 -6.05546 -0.4
      vertex 1.94454 -6.05546 -4
    endloop
  endfacet
  facet normal -0.760394 -0.649462 0
    outer loop
      vertex 1.94454 -6.05546 -0.4
      vertex 2.2248 -6.38359 -4
      vertex 2.2248 -6.38359 -0.4
    endloop
  endfacet
  facet normal 0.996917 0.0784667 0
    outer loop
      vertex -2.71614 -8.43019 -0.4
      vertex -2.75 -8 -4
      vertex -2.75 -8 -0.4
    endloop
  endfacet
  facet normal 0.996917 0.0784667 0
    outer loop
      vertex -2.75 -8 -4
      vertex -2.71614 -8.43019 -0.4
      vertex -2.71614 -8.43019 -4
    endloop
  endfacet
  facet normal -0.0785581 0.99691 0
    outer loop
      vertex 0.430194 -10.7161 -4
      vertex 0 -10.75 -0.4
      vertex 0.430194 -10.7161 -0.4
    endloop
  endfacet
  facet normal -0.0785581 0.99691 0
    outer loop
      vertex 0 -10.75 -0.4
      vertex 0.430194 -10.7161 -4
      vertex 0 -10.75 -4
    endloop
  endfacet
  facet normal 0.852644 -0.522492 0
    outer loop
      vertex -2.45027 -6.75153 -0.4
      vertex -2.2248 -6.38359 -4
      vertex -2.2248 -6.38359 -0.4
    endloop
  endfacet
  facet normal 0.852644 -0.522492 0
    outer loop
      vertex -2.2248 -6.38359 -4
      vertex -2.45027 -6.75153 -0.4
      vertex -2.45027 -6.75153 -4
    endloop
  endfacet
  facet normal 0.996917 -0.0784667 0
    outer loop
      vertex -2.75 -8 -0.4
      vertex -2.71614 -7.56981 -4
      vertex -2.71614 -7.56981 -0.4
    endloop
  endfacet
  facet normal 0.996917 -0.0784667 0
    outer loop
      vertex -2.71614 -7.56981 -4
      vertex -2.75 -8 -0.4
      vertex -2.75 -8 -4
    endloop
  endfacet
  facet normal -0.760394 0.649462 0
    outer loop
      vertex 1.94454 -9.94454 -4
      vertex 2.2248 -9.61641 -0.4
      vertex 2.2248 -9.61641 -4
    endloop
  endfacet
  facet normal -0.760394 0.649462 0
    outer loop
      vertex 2.2248 -9.61641 -0.4
      vertex 1.94454 -9.94454 -4
      vertex 1.94454 -9.94454 -0.4
    endloop
  endfacet
  facet normal 0.233429 -0.972374 0
    outer loop
      vertex -0.849796 -5.38459 -4
      vertex -0.430194 -5.28386 -0.4
      vertex -0.849796 -5.38459 -0.4
    endloop
  endfacet
  facet normal 0.233429 -0.972374 0
    outer loop
      vertex -0.430194 -5.28386 -0.4
      vertex -0.849796 -5.38459 -4
      vertex -0.430194 -5.28386 -4
    endloop
  endfacet
  facet normal 0.522492 -0.852644 0
    outer loop
      vertex -1.61641 -5.7752 -4
      vertex -1.24847 -5.54973 -0.4
      vertex -1.61641 -5.7752 -0.4
    endloop
  endfacet
  facet normal 0.522492 -0.852644 0
    outer loop
      vertex -1.24847 -5.54973 -0.4
      vertex -1.61641 -5.7752 -4
      vertex -1.24847 -5.54973 -4
    endloop
  endfacet
  facet normal 0.760394 -0.649462 0
    outer loop
      vertex -2.2248 -6.38359 -0.4
      vertex -1.94454 -6.05546 -4
      vertex -1.94454 -6.05546 -0.4
    endloop
  endfacet
  facet normal 0.760394 -0.649462 0
    outer loop
      vertex -1.94454 -6.05546 -4
      vertex -2.2248 -6.38359 -0.4
      vertex -2.2248 -6.38359 -4
    endloop
  endfacet
  facet normal 0.078466 -0.996917 0
    outer loop
      vertex -0.430194 -5.28386 -4
      vertex 0 -5.25 -0.4
      vertex -0.430194 -5.28386 -0.4
    endloop
  endfacet
  facet normal 0.078466 -0.996917 0
    outer loop
      vertex 0 -5.25 -0.4
      vertex -0.430194 -5.28386 -4
      vertex 0 -5.25 -4
    endloop
  endfacet
  facet normal 0.649462 -0.760394 0
    outer loop
      vertex -1.94454 -6.05546 -4
      vertex -1.61641 -5.7752 -0.4
      vertex -1.94454 -6.05546 -0.4
    endloop
  endfacet
  facet normal 0.649462 -0.760394 0
    outer loop
      vertex -1.61641 -5.7752 -0.4
      vertex -1.94454 -6.05546 -4
      vertex -1.61641 -5.7752 -4
    endloop
  endfacet
endsolid OpenSCAD_Model
